<svg viewBox="0 0 24 24" fill="none" xmlns="http://www.w3.org/2000/svg">
<g>
<path d="M11.8254 0.0436401H12.1528L12.4365 0.130942L12.6548 0.261894L12.7857 0.371021V0.414672L12.873 0.458323V0.501973L12.9603 0.545624V0.589275L13.0476 0.632926V0.676577L13.1349 0.720227V0.763878L13.2222 0.807529V0.85118H13.2659V0.894831H13.3095V0.938481H13.3532V0.982132H13.3968V1.02578H13.4405V1.06943H13.4841V1.11308H13.5278V1.15674H13.5714V1.20039H13.6151V1.24404H13.6587V1.28769H13.7024V1.33134H13.746V1.37499H13.7897V1.41864H13.8333V1.46229H13.877V1.50594H13.9206V1.54959H13.9643V1.59324H14.0079L14.1389 1.74602L14.2698 1.85515L14.4008 2.00793L14.5317 2.11705L14.6627 2.26983L14.7936 2.37896L14.9246 2.53174L15.0556 2.64086L15.1865 2.79364L15.3175 2.90277L15.4484 3.05554L15.5794 3.16467L15.7103 3.31745L15.8413 3.42658L15.9722 3.57935L16.0159 3.60118V3.64483H16.0595V3.68848H16.1032L16.256 3.86308L16.4087 4.01586L16.5615 4.32142L16.627 4.60515V4.80158L16.5179 5.17261L16.3433 5.41269L16.1032 5.63094L15.8849 5.74007L15.754 5.76189H14.1825V10.8254L14.4008 10.7163L14.7936 10.498L15.2956 10.2579L15.8849 10.0178L16.6488 9.77777L17.1071 9.66864L17.1944 9.58134L17.1726 9.36308L17.1944 8.27181L17.2599 7.92261L17.3909 7.6607L17.5436 7.4861L17.7183 7.35515L17.9583 7.24602L18.1766 7.20237H18.504L18.7877 7.28967L19.0933 7.50793L19.4206 7.81348L21.4504 9.84324V9.88689L21.5377 9.93054V9.9742L21.625 10.0178V10.0615L21.7123 10.1051V10.1488L21.7996 10.1924V10.2361L21.8869 10.2798L22.4107 10.8036L22.6071 11.0436L22.8254 11.3274L22.8909 11.4365L22.9563 11.7421V11.9385L22.9127 12.2004L22.7817 12.4405L22.6944 12.5714L18.9841 16.2817L18.7222 16.4127L18.5694 16.4782L18.4167 16.5H18.1984L17.9365 16.4345L17.6746 16.3036L17.4127 16.0417L17.3036 15.8889L17.2381 15.7143L17.1944 15.4524V14.2738L16.8016 14.4484L16.4087 14.6667L16.1686 14.8413L15.8631 15.0813L15.6012 15.3214L15.5139 15.4305L15.3611 15.627L15.2302 15.7798L14.9683 16.1944L14.7282 16.6528L14.5536 17.0893L14.4226 17.4821L14.2698 18.0714L14.2044 18.4424L14.1607 18.9444L14.1389 22.8294L14.0734 23.2004L13.9425 23.4623L13.746 23.6805L13.4405 23.8333L13.3532 23.8551L13.0476 23.877L12.9821 23.8988H12.0873L12.0655 23.9206H11.8254V23.877L11.7163 23.8988H11.0179L10.5159 23.8551L10.2976 23.7897L10.1667 23.7024L9.99206 23.5496L9.83929 23.3313L9.73016 23.004V18.5952L9.83929 17.7659L9.97024 17.0456V16.7401L9.57738 15.9762L9.4246 15.7361L9.20635 15.4524L9.09722 15.3214V15.2778H9.05357L8.94444 15.1468L8.66071 14.9286L8.42063 14.754L8.1369 14.5794L7.59127 14.3174L7.15476 14.1647L6.7619 14.0337V15.5178L6.6746 15.8671L6.56548 16.0417L6.30357 16.3036L6.08532 16.4127L5.88889 16.4782H5.3869L5.125 16.369L4.92857 16.2163L1.2619 12.5496L1.10913 12.3313L1.02183 12.0476L1 11.6766L1.13095 11.3274L1.28373 11.1091L1.39286 10.9782L1.52381 10.869L1.56746 10.8036H1.61111L1.65476 10.7163H1.69841L1.74206 10.629H1.78571L1.82937 10.5417L1.96032 10.4325L2.09127 10.2798L2.22222 10.1706L2.35317 10.0178L2.48413 9.90872L2.61508 9.75594L2.74603 9.64681L2.87698 9.49404L3.00794 9.38491L3.13889 9.23213L3.26984 9.123L3.40079 8.97023L3.53175 8.8611L3.6627 8.70832L3.79365 8.5992L3.9246 8.44642L4.05556 8.33729L4.18651 8.18451L4.27381 8.09721H4.31746L4.36111 8.00991H4.40476L4.44841 7.92261H4.49206L4.53571 7.83531H4.57936L4.62302 7.748L4.79762 7.5734H4.84127L4.8631 7.50793L5.10317 7.33332L5.2996 7.24602L5.49603 7.20237H5.80159L6.06349 7.26785L6.36905 7.44245L6.54365 7.61705L6.71825 7.96626L6.7619 8.16269V9.55951L7.13294 9.60316L7.76587 9.73412L8.39881 9.90872L8.92262 10.0833L9.46825 10.3016L9.75198 10.4325L9.77381 5.76189H8.11508L7.76587 5.58729L7.61309 5.45634L7.46032 5.23808L7.35119 4.95435L7.32936 4.84523V4.4742L7.39484 4.25594L7.54762 3.99404L7.74405 3.77578L11.2143 0.305545L11.498 0.130942L11.6944 0.0654655L11.8254 0.0436401ZM11.9345 1.22221L11.7381 1.44047L9.20635 3.97221L9.03175 4.12499L8.55159 4.60515L8.50794 4.69245L10.8651 4.67062V11.0436L10.9524 11.1528L11.2579 11.371L11.5198 11.5893L11.7163 11.7421L11.7817 11.8075H11.8254V11.8512L12 12.004L12.2183 12.2004L12.2837 12.244L12.502 12.0476L12.7639 11.8512L13.0258 11.6111L13.0476 11.5893L13.0694 4.67062L15.4048 4.69245L15.3611 4.58332L15.0992 4.34324L12.1091 1.35316L12 1.22221H11.9345ZM5.62698 8.38094L3.99008 10.0178L3.77183 10.1924L2.17857 11.7857L2.22222 11.873L2.39683 12.0258L5.49603 15.125L5.60516 15.2559H5.64881V12.746L6.12897 12.7897L6.7619 12.8988L7.39484 13.0516L7.89682 13.2262L8.35516 13.4226L8.76984 13.6409L9.05357 13.8155L9.38095 14.0555L9.55556 14.2083L9.64286 14.252L9.68651 14.3393H9.73016V14.3829L9.88294 14.5139L10.0357 14.6885L10.2103 14.9067L10.3849 15.1468L10.4504 15.2778H10.5159L10.7778 14.7103L11.0179 14.2083L11.4107 13.5536L11.5417 13.3571L11.6508 13.2262L11.5417 13.0952L11.4107 12.9861L11.2798 12.8333L11.1706 12.7242L10.9306 12.5059L10.6905 12.3313L10.4504 12.1349L10.254 12.004L9.73016 11.6766L9.40278 11.502L8.96627 11.3055L8.39881 11.0873L7.76587 10.8909L6.98016 10.7163L6.30357 10.6071L5.73611 10.5417H5.62698L5.64881 8.38094H5.62698ZM18.3075 8.40277V10.5853L17.8056 10.6726L17.369 10.7599L16.7798 10.9127L16.0595 11.1528L15.5575 11.371L15.2083 11.5456L14.7718 11.7857L14.379 12.0476L14.0298 12.3095L13.746 12.5496L13.5278 12.7242L13.0476 13.2044L12.7639 13.5754L12.5893 13.7936L12.3929 14.0774L12.2401 14.3174L12.0218 14.6885L11.8254 15.0595L11.5417 15.6924L11.3452 16.2163L11.1488 16.871L11.0179 17.4167L10.9306 17.9405L10.8651 18.5516L10.8433 19.119V22.7857H12.9385L13.0258 22.7421V20.1885L13.004 20.1448V19.8829L13.0694 18.4424L13.1786 17.7659L13.3313 17.1984L13.5496 16.5436L13.7897 16.0198L14.0079 15.6051L14.1607 15.3651L14.3353 15.1032L14.5317 14.8631L14.6845 14.6667L14.9246 14.4048L15.0992 14.252L15.3175 14.0774L15.623 13.8373L15.8631 13.6845L16.2341 13.4663L16.6925 13.248L17.1726 13.0734L17.8492 12.8988L18.3075 12.7897V15.2778L18.4603 15.1686L18.5694 15.0377L18.744 14.8849L18.8532 14.754L18.9841 14.6448L19.1151 14.4921L19.1806 14.4484V14.4048L19.2679 14.3611L21.6905 11.9385L21.7341 11.9167V11.873H21.7778L21.756 11.7857L21.6032 11.6548L21.494 11.5238L21.3631 11.4147L21.2103 11.2401L20.4464 10.4762L20.3155 10.3671L20.1845 10.2143L20.0536 10.1051L19.9226 9.95237L19.7917 9.84324L19.6607 9.69046L19.5298 9.58134L19.4643 9.49404H19.4206L19.377 9.40673L19.0278 9.05753H18.9841L18.9405 8.97023H18.8968L18.8532 8.88293H18.8095L18.7659 8.79562H18.7222L18.7004 8.73015L18.5476 8.5992L18.4385 8.46824L18.3512 8.40277H18.3075Z" fill="currentColor"/>
</g>
</svg>
