<svg viewBox="0 0 24 24" fill="none" xmlns="http://www.w3.org/2000/svg">
<g>
<path d="M0.433594 4.07043H0.667969L1.08984 4.09387L2.12109 4.18762L2.85938 4.26965L3.375 4.33997L3.94922 4.44543L4.3125 4.52747L4.74609 4.64465L5.16797 4.78528L5.51953 4.93762L5.71875 5.04309L5.91797 5.18372L6.01172 5.3009L6.04688 5.41809V5.81653L6.03516 5.99231L6.02344 6.0509L9.66797 6.03918L9.92578 6.02747L10.0195 5.99231L10.1953 5.87512L10.418 5.72278L10.6523 5.58215L10.8633 5.46497L11.1562 5.32434L11.4023 5.24231L11.6719 5.172L11.9648 5.12512L12.1758 5.10168H12.4805L12.7734 5.13684L13.1016 5.19543L13.418 5.27747L13.6875 5.37122L14.2148 5.58215L14.5547 5.72278L15.1523 5.98059L15.6797 6.20325L15.9375 6.30872L16.6523 6.58997L16.9102 6.69543L17.0391 6.75403L17.0156 6.63684V6.44934L17.0625 6.33215L17.1328 6.21497L17.1914 6.16809L17.3672 6.06262L17.6133 5.95715L18.0938 5.79309L18.4805 5.6759L18.9727 5.547L19.3945 5.45325L20.0039 5.33606L20.5195 5.25403L21.0469 5.18372L21.7266 5.1134L22.3828 5.07825L22.793 5.06653L22.8281 5.05481H23.5312L23.7188 5.10168L23.8477 5.19543L23.9297 5.31262L24 5.44153V14.6759L23.9648 14.7111L23.8711 14.8986L23.8008 14.9572L23.6602 15.0157L23.6133 15.0392H20.332L20.2617 14.9923L20.1445 14.9337L20.0625 14.8282L20.0039 14.6876L19.9219 14.4064L19.8984 14.254L19.7812 14.3009L19.6289 14.4181L19.5 14.5001L19.3828 14.5822L19.2539 14.6642L19.1484 14.7579L19.1367 15.2384L19.1133 15.3907L19.043 15.6251L18.9492 15.8243L18.8789 15.9298L18.7969 16.0587L18.6562 16.2111L18.5391 16.3165L18.3281 16.4454L18.1523 16.5392L17.9648 16.6095L17.7773 16.6329L17.707 16.6681L17.625 16.6564L17.5547 16.6915L17.4492 16.715L17.3906 16.7736L17.3555 16.8204L17.3086 16.9259L17.1914 17.0548L17.0742 17.2189L16.9453 17.3126L16.793 17.4415L16.5117 17.5939L16.3945 17.6407L16.2656 17.6876L16.125 17.7228L15.9258 17.7579L15.8672 17.7697H15.4922L15.4336 17.7462L15.3633 17.7579V17.7814L15.293 17.84L15.2578 17.8868H15.2344L15.1992 17.9923L15.0938 18.1212L14.7656 18.4493L14.6484 18.5197L14.4492 18.6368L14.2266 18.7189L13.9688 18.7775L13.8867 18.7892L13.8164 18.8009L13.7695 18.8126H13.6875L13.582 18.7892L13.4883 18.7775L13.418 18.754H13.1133L12.8789 18.8829L12.6914 18.9532L12.3984 19.0118L12.3047 19.0236L12.2812 19.0353L11.918 19.0236L11.4258 18.9532L11.1211 18.8712L10.9102 18.7892L10.7344 18.7189L10.4062 18.5548L10.2188 18.4376L10.043 18.3204L9.87891 18.2032L9.72656 18.0861L9.60938 17.9923L9.45703 17.8868L9.29297 17.7345L9.14062 17.629L9.02344 17.5353L8.89453 17.4298L8.74219 17.3243L8.60156 17.1954L8.41406 17.0665L8.25 16.9259L8.03906 16.7736L7.92188 16.6681L7.74609 16.5392L7.59375 16.422L7.48828 16.3282L7.33594 16.2228L7.17188 16.0822L7.03125 15.9767L6.90234 15.8829L6.77344 15.7657L6.55078 15.6017L6.41016 15.4728L6.19922 15.3204L6.03516 15.1798L5.89453 15.0626L5.75391 14.9572L5.63672 14.8517L5.46094 14.6759L5.36719 14.5939L4.88672 14.1134L4.80469 14.0197L4.44141 13.6564L4.34766 13.5743L4.18359 13.4103L4.14844 13.3868L4.125 13.4806L4.04297 13.715L3.98438 13.8556L3.87891 13.9611L3.77344 14.0197L3.58594 14.0431H0.480469L0.363281 14.0197L0.257812 13.9493L0.105469 13.7853L0.0820312 13.7267L0.0703125 13.6447V4.6095L0.0820312 4.39856L0.140625 4.28137L0.257812 4.15247L0.363281 4.08215L0.433594 4.07043ZM1.10156 5.10168L1.08984 5.12512V13.0236H3.12891L3.1875 12.9884L3.23438 12.8712L3.33984 12.5314L3.52734 11.8986L3.66797 11.4298L3.89062 10.6681L4.125 9.84778L4.34766 9.02747L4.51172 8.39465L4.6875 7.64465L4.86328 6.76575L4.94531 6.297L5.01562 5.89856V5.81653L4.91016 5.76965L4.54688 5.65247L4.19531 5.57043L3.1875 5.39465L2.17969 5.23059L1.74609 5.172L1.18359 5.1134L1.10156 5.10168ZM22.8984 6.08606L22.0195 6.12122L21.1523 6.20325L20.4727 6.297L20.0039 6.37903L19.3828 6.50793L18.9258 6.62512L18.5156 6.74231L18.2578 6.82434L18.2695 6.88293L18.4453 7.29309L18.5625 7.56262L18.6914 7.89075L18.8203 8.20715L19.0547 8.80481L19.2305 9.27356L19.3594 9.6134L19.5352 10.0939L19.7461 10.6681L19.957 11.2775L20.1094 11.7111L20.2852 12.215L20.4492 12.7189L20.5898 13.129L20.8008 13.797L20.8945 13.9845L20.9297 14.0314H22.9336L22.957 14.0197L22.9688 13.1173V6.09778L22.957 6.08606H22.8984ZM12.2344 6.12122L11.8008 6.19153L11.4961 6.297L11.2266 6.4259L11.0625 6.53137L10.8398 6.68372L10.6875 6.81262L10.5352 6.92981L10.4297 7.01184L10.2305 7.19934L10.0664 7.32825L9.92578 7.45715L9.79688 7.56262L9.49219 7.86731L9.36328 8.03137L9.25781 8.172L9.11719 8.33606L9.04688 8.45325L8.94141 8.61731L8.82422 8.82825L8.73047 9.01575L8.61328 9.30872L8.54297 9.55481L8.49609 9.77747V9.88293L8.55469 9.97668L8.61328 10.0236L8.77734 10.0939L8.88281 10.129L9.02344 10.1407L9.04688 10.1642L9.14062 10.1525L9.38672 10.1642L9.46875 10.1525L9.52734 10.129L9.67969 10.0939L9.90234 9.97668L10.1016 9.84778L10.2188 9.74231L10.4297 9.53137L10.5586 9.33215L10.7109 9.16809L10.793 9.1095L10.9922 9.03918L11.2031 8.99231L11.543 8.89856L11.7891 8.80481L12.0352 8.69934L12.3047 8.58215L12.3984 8.55872H12.6445L12.7852 8.61731L12.8906 8.69934L13.0547 8.8634L13.1836 8.96887L13.3242 9.07434L13.4414 9.17981L13.5352 9.26184L13.6523 9.36731L13.8164 9.4845L13.9922 9.64856L14.1445 9.77747L14.2852 9.88293L14.4492 10.0236L14.5781 10.1407L14.7422 10.2697L14.8945 10.3986L15.0117 10.504L15.1758 10.6329L15.3633 10.7853L15.5039 10.9142L15.7031 11.0665L15.8672 11.2072L15.9844 11.3126L16.1836 11.465L16.3477 11.6056L16.4766 11.7228L16.6641 11.8634L16.8047 11.9923L16.957 12.1329L17.1094 12.2501L17.2383 12.3556L17.3906 12.4962L17.8008 12.9064L17.9297 13.0118L18.0352 13.129L18.1172 13.2228L18.5039 13.6095L18.6445 13.797L18.6797 13.8087L18.9609 13.6212L19.125 13.504L19.2188 13.4454L19.3711 13.3517L19.4648 13.2814L19.5352 13.2228L19.5234 13.1173L19.4531 12.9298L19.3242 12.59L19.2305 12.3439L19.1719 12.1681L18.9844 11.6642L18.832 11.2423L18.7031 10.8907L18.5977 10.6095L18.5039 10.34L18.3398 9.89465L18.1406 9.34387L18 8.95715L17.8477 8.53528L17.7188 8.18372L17.6602 8.10168L17.5078 8.00793L17.3203 7.93762L16.9805 7.80872L16.4883 7.62122L16.2188 7.51575L15.293 7.15247L15.0469 7.05872L14.5898 6.87122L13.4766 6.40247L13.043 6.25012L12.832 6.19153L12.5625 6.14465L12.4688 6.13293L12.4336 6.12122H12.2344ZM5.85938 7.05872L5.83594 7.08215L5.78906 7.31653L5.69531 7.77356L5.51953 8.547L5.33203 9.297L5.17969 9.87122L5.01562 10.4689L4.81641 11.1603L4.71094 11.5236L4.58203 11.9572L4.54688 12.0626L4.53516 12.1212V12.2032L4.55859 12.2853L4.71094 12.4611L5.15625 12.9064L5.28516 13.0704L5.4375 13.2228L5.51953 13.3165L5.70703 13.504L5.77734 13.5861L5.87109 13.6681L5.96484 13.7618L6.05859 13.8439L6.17578 13.9493L6.29297 14.0431L6.43359 14.172L6.58594 14.3126L6.71484 14.4181L6.86719 14.5353L7.01953 14.6759L7.16016 14.7931L7.30078 14.8986L7.46484 15.0392L7.58203 15.1447L7.74609 15.2618L7.92188 15.4142L8.07422 15.5314L8.21484 15.6368L8.35547 15.754L8.51953 15.8712L8.63672 15.9767L8.83594 16.1173L8.96484 16.2228L9.17578 16.3751L9.32812 16.504L9.51562 16.6329L9.69141 16.7736L9.89062 16.9142L9.98438 16.9962L10.1602 17.1134L10.2891 17.2189L10.4297 17.3126L10.5938 17.4415L10.7344 17.5353L10.8984 17.6407L11.0391 17.7228L11.2148 17.8048L11.3555 17.8634L11.5312 17.9103L11.6367 17.9572L11.8359 17.9806L11.8828 18.004H12.0938L12.2461 18.0392L12.2227 17.9806L10.9336 16.6915L10.8516 16.5978L10.7461 16.4923L10.6641 16.3986L10.418 16.1525L10.3359 16.0822L10.2539 15.9884L10.1602 15.8829L10.0547 15.6954L10.0312 15.6134V15.4376L10.0781 15.3087L10.1836 15.1681L10.3125 15.0743L10.4766 15.0157L10.6055 15.0275L10.7578 15.0743L10.8633 15.1447L11.3555 15.6368L11.4375 15.7306L11.7539 16.047L11.8008 16.1056L11.8945 16.1876L12.1641 16.4572L12.2578 16.5392L13.3711 17.6525L13.4766 17.7228L13.6406 17.7931H13.7461L14.0156 17.6993L14.25 17.5236L14.3672 17.3712L14.4375 17.2775L14.4258 17.2189L14.1094 16.9025L14.0273 16.8087L12.9609 15.7423L12.8789 15.6486L12.6914 15.4493L12.375 15.1329L12.2812 15.0157L12.1406 14.8517L12.0703 14.7462L12.0117 14.5939V14.465L12.0586 14.3361L12.1289 14.2072L12.2227 14.1251L12.3398 14.0548L12.4688 14.0314H12.5625L12.6914 14.0548L12.8203 14.1251L13.0078 14.3009L13.0898 14.3947L13.418 14.7228L13.5 14.8165L14.1094 15.4259L14.2031 15.5079L15.2461 16.5509L15.3398 16.6212L15.5391 16.7267L15.668 16.7501H15.7617L15.8789 16.715L16.0078 16.6915L16.2305 16.5743L16.3359 16.4923L16.4414 16.3751L16.4766 16.3165L16.4648 16.2579L16.3828 16.1642L15.1758 14.9572L15.0938 14.8634L15 14.7462L14.8945 14.629L13.6875 13.422L13.5703 13.2697L13.5117 13.129L13.5 13.0001L13.582 12.7775L13.6523 12.6837L13.7344 12.6134L13.8281 12.5665L13.9453 12.5431H14.1211L14.2383 12.5782L14.3555 12.6603L14.6133 12.9181L14.6953 13.0118L17.2031 15.5197L17.3203 15.59L17.5078 15.6603L17.6016 15.6486L17.8125 15.5548L17.9531 15.4259L18.0469 15.3204L18.1055 15.2032L18.1172 15.1447V14.9454L18.082 14.8517L17.9766 14.6525L17.8594 14.4767L17.7656 14.3478L17.6367 14.2072L17.5195 14.0431L17.4375 13.9611L17.3555 13.8673L17.0039 13.5157L16.9102 13.4337L16.7461 13.3048L16.5586 13.129L16.4648 13.047L16.3594 12.9415L16.2305 12.8361L16.0898 12.7306L15.9492 12.6017L15.832 12.4962L15.7148 12.4025L15.5977 12.3204L15.4805 12.215L15.3398 12.0861L15.1641 11.9572L15.0352 11.8517L14.9531 11.7697L14.625 11.5118L14.4727 11.3712L14.3086 11.2423L14.1914 11.1486L14.0742 11.0431L13.9102 10.9025L13.7227 10.7618L13.5469 10.5978L13.2188 10.34L13.0312 10.1642L12.832 10.0118L12.7148 9.91809L12.6094 9.81262L12.5156 9.73059L12.4453 9.69543H12.3281L12.1523 9.74231L12.0352 9.78918L11.7539 9.89465L11.4961 9.9884L11.332 10.0587L11.2266 10.129L11.1562 10.2228L11.0742 10.3048L11.0273 10.3986L10.9102 10.4923L10.7461 10.6212L10.6406 10.715L10.3711 10.879L10.125 10.9962L9.80859 11.1017L9.49219 11.1603L9.39844 11.172H9.23438H9.19922L9.15234 11.1837V11.1603L9.04688 11.172H8.95312L8.88281 11.1368H8.78906L8.61328 11.1017L8.34375 11.0197L8.14453 10.9376L7.99219 10.8439L7.80469 10.6681L7.67578 10.5157L7.58203 10.3282L7.52344 10.1525L7.46484 9.8595V9.70715L7.53516 9.33215L7.58203 9.13293L7.6875 8.82825L7.88672 8.39465L7.98047 8.23059L8.12109 8.00793L8.23828 7.83215L8.35547 7.67981L8.4375 7.56262L8.54297 7.422L8.70703 7.25793L8.8125 7.12903L8.84766 7.09387V7.07043L8.8125 7.05872H5.85938Z" fill="currentColor"/>
</g>
</svg>
