<svg viewBox="0 0 24 24" fill="currentColor" xmlns="http://www.w3.org/2000/svg" class="group-hover:scale-125 transition-all">
  <path d="M18 13h-1.5a2.25 2.25 0 0 0-2.25-2.25V9a3.75 3.75 0 0 1 3.75 3.75Z"></path>
  <path d="M21 13h-1.5a5.25 5.25 0 0 0-5.25-5.25V4.5a6.75 6.75 0 0 1 6.75 6.75ZM15.25 16.112l1.68-1.68a1.627 1.627 0 0 1 1.753-.36l2.046.819a1.627 1.627 0 0 1 1.212 1.518v3.721a1.625 1.625 0 0 1-1.713 1.627C5.695 20.854 2.799 8.708 2.261 4.056A1.622 1.622 0 0 1 3.877 2.25h3.655a1.627 1.627 0 0 1 1.51 1.021l.819 2.046a1.627 1.627 0 0 1-.36 1.753l-1.68 1.68s.931 6.549 7.431 7.362Z"></path>
  <path d="M0 0h24v24H0z" fill="none"></path>
</svg>
