<svg viewBox="0 0 24 24" fill="none" xmlns="http://www.w3.org/2000/svg">
<path d="M3.46067 0H3.76966L4.09925 0.0834123L4.30524 0.187678L4.51124 0.375355L4.67603 0.563033L4.77903 0.771564L4.86142 1.00095L4.88202 1.16777L4.96442 1.25118L6.38577 1.62654L7.53933 1.93934L8.83708 2.29384L9.22846 2.3981L9.33146 2.37725L9.45506 2.16872L9.64045 1.91848L9.80524 1.75166L10.1142 1.54313L10.4232 1.39716L10.794 1.31374L11.0206 1.29289L11.4944 1.3763L11.8034 1.50142L12.0506 1.64739L12.236 1.79336L12.4213 1.98104L12.6273 2.29384L12.7715 2.62749L12.8333 2.85687L12.8951 3.35735L13.0599 3.44076L13.8015 3.62844L16.4176 4.33744L17.0974 4.52512L17.2828 4.54597L17.3858 4.44171L17.53 4.27488L17.7566 4.10806L17.9213 4.02464L18.1273 3.96209H18.4569L18.7865 4.0455L19.0337 4.17062L19.3015 4.4L19.4457 4.60853L19.5487 4.87962L19.6105 5.17156V5.48436L19.5281 5.81801L19.4045 6.04739L19.1779 6.29763L18.9719 6.46445L18.8895 6.52701L19.0543 6.94408L19.5075 8.15355L19.7753 8.86256L20.0225 9.509L20.2285 10.0512L20.5787 10.9896L20.8052 11.5735L20.867 11.6986L20.9906 11.7194H21.5468L21.7528 11.782L21.8764 11.8654L22 12.0948V13.6588L21.9794 13.7005V13.9716L21.897 14.618L21.7528 15.1185L21.6292 15.4313L21.485 15.7024L21.3408 15.9318L21.176 16.1611L21.0318 16.328L20.6199 16.745L20.3521 16.9327L20.1255 17.0787L19.6105 17.3289L19.2191 17.454L18.7865 17.5374H17.9419L17.4064 17.4332L17.0356 17.3081L16.5618 17.0787L16.2528 16.8701L15.9232 16.5991L15.779 16.4739L15.5524 16.182L15.367 15.9526L15.161 15.5981L14.9757 15.181L14.8315 14.7431L14.7491 14.3678L14.7079 13.9299L14.6873 13.346L14.6667 13.2834V12.9706L14.6873 12.9081L14.7079 12.1156L14.8109 11.9071L14.9757 11.782L15.1199 11.7194H15.7378L15.779 11.6152L15.882 11.3858L16.3352 10.218L17.6948 6.77725L17.7772 6.58957V6.48531L17.5918 6.38104L17.4476 6.25592L17.3034 6.04739L17.1592 5.75545L17.118 5.50521L17.0562 5.40095L16.5618 5.25498L15.6966 5.02559L13.6161 4.46256L12.8539 4.25403L12.6891 4.21232L12.6479 4.29573L12.4007 4.62938L12.133 4.90047L12.0506 5.109V16.2028H14.2341L14.3783 16.2445L14.4813 16.3488L14.5637 16.5365L14.6667 17.0995L14.7903 17.8085L14.8109 17.8294L15.2434 17.8711L15.4082 17.9545L15.5318 18.1422L15.573 18.2673L15.676 18.8095L15.7996 19.3725L15.8614 19.4976L16.294 19.5602L16.4588 19.7479L16.5618 20.0398L16.8914 21.3744L16.912 21.5829L16.8708 21.7706L16.6854 21.9791L16.5618 22H5.4794L5.25281 21.9166L5.12921 21.7706L5.08802 21.6455V21.3953L5.19101 20.9573L5.4176 20.0815L5.5 19.7896L5.64419 19.6227L5.70599 19.5602L5.82959 19.5185L6.09738 19.4976L6.15918 19.4351L6.24157 19.1223L6.36517 18.5175L6.46817 18.1213L6.57116 17.9545L6.67416 17.8919L6.90075 17.8502L7.14794 17.8294L7.20974 17.7043L7.31273 17.1412L7.37453 16.7867L7.43633 16.4739L7.53933 16.3071L7.64232 16.2237L7.74532 16.2028H9.90824V5.00474L9.84644 4.90047L9.53745 4.58768L9.39326 4.37915L9.22846 4.0455L9.14607 3.7327L9.12547 3.54502V3.25308L8.87828 3.19052L8.3839 3.04455L7.51873 2.81517L6.20037 2.46066L4.82022 2.08531L4.73783 2.06445L4.57303 2.21043L4.22285 2.56493L4.24345 2.7109L5.06742 4.87962L5.4382 5.85972L5.70599 6.56872L6.03558 7.44455L6.13858 7.71564L6.17978 7.73649L6.85955 7.75735L7.08614 7.84076L7.18914 7.94502L7.25094 8.04929L7.29214 8.17441V9.71754L7.27154 9.86351L7.25094 10.3223L7.14794 10.8436L7.04494 11.1564L6.90075 11.49L6.71536 11.8237L6.50936 12.1156L6.30337 12.3867L6.03558 12.6578L5.82959 12.8246L5.5 13.054L5.25281 13.2L4.82022 13.3877L4.53184 13.4711L4.28464 13.5336L4.09925 13.5545H3.19288L2.8633 13.4919L2.59551 13.4294L2.20412 13.2834L1.73034 13.0332L1.50375 12.8664L1.27715 12.6578L1.09176 12.5118L0.906367 12.2825L0.741573 12.0948L0.494382 11.6986L0.26779 11.219L0.144195 10.8436L0.0411985 10.3848L0 10.072V8.15355L0.0617978 8.00758L0.185393 7.86161L0.350187 7.7782L0.411985 7.75735L0.906367 7.73649L1.02996 7.67393L1.13296 7.50711L1.35955 6.92322L2.92509 2.96114L3.06929 2.58578V2.52322L2.7809 2.33554L2.59551 2.08531L2.47191 1.85592L2.38951 1.58483V1.06351L2.47191 0.81327L2.57491 0.604739L2.7191 0.417062L2.7603 0.354502H2.8015L2.8221 0.291943L3.02809 0.145972L3.23408 0.0417062L3.46067 0ZM3.54307 0.834123L3.35768 0.917536L3.21348 1.08436L3.17228 1.20948V1.45972L3.23408 1.60569L3.35768 1.75166L3.56367 1.83507H3.70787L3.89326 1.75166L4.03745 1.60569L4.11985 1.43886V1.23033L4.03745 1.06351L3.91386 0.917536L3.74906 0.834123H3.54307ZM10.9176 2.12701L10.6292 2.21043L10.382 2.33554L10.176 2.52322L10.0318 2.73175L9.92884 3.00284L9.88764 3.16967V3.48246L9.97004 3.77441L10.073 3.96209L10.2172 4.14976L10.3614 4.27488L10.5262 4.37915L10.7322 4.46256L11.0412 4.48341L11.309 4.44171L11.515 4.35829L11.721 4.19147L11.9064 3.98294L12.03 3.75355L12.0918 3.52417V3.10711L11.9888 2.79431L11.824 2.52322L11.6386 2.3564L11.3708 2.21043L11.0206 2.12701H10.9176ZM3.62547 3.3782L3.52247 3.58673L3.23408 4.33744L2.6985 5.69289L2.05993 7.29858L1.89513 7.69479L1.91573 7.7782L5.29401 7.75735L5.23221 7.54881L4.88202 6.61043L4.65543 6.00569L4.36704 5.25498L4.16105 4.7128L3.81086 3.77441L3.66667 3.3782H3.62547ZM18.2303 4.79621L18.0449 4.90047L17.9419 5.02559L17.8802 5.17156V5.44265L18.0037 5.65118L18.1685 5.7763L18.2097 5.79716H18.4775L18.6629 5.69289L18.7865 5.52607L18.8277 5.38009V5.21327L18.7453 5.02559L18.6011 4.87962L18.4569 4.79621H18.2303ZM10.7116 5.29668V16.182H11.2678L11.2884 16.1611V5.29668H10.7116ZM18.3127 7.34028L18.1891 7.67393L16.7472 11.3232L16.603 11.6569V11.7194H20.0225L19.9813 11.5943L19.7753 11.073L19.5075 10.364L19.0955 9.27962L18.8689 8.67488L18.6629 8.1327L18.4157 7.48626L18.3539 7.34028H18.3127ZM0.782772 8.59147L0.741573 8.63318V9.73839L0.803371 10.2597L0.865169 10.5517L0.988764 10.927L1.19476 11.3232L1.38015 11.5943L1.56554 11.8237L1.77154 12.0322L1.95693 12.1782L2.24532 12.3659L2.55431 12.5327L2.8221 12.637L3.15169 12.7204L3.58427 12.7621L3.93446 12.7412L4.28464 12.6787L4.61423 12.5744L4.92322 12.4284L5.14981 12.3033L5.4382 12.0948L5.64419 11.9071L5.72659 11.8028L5.82959 11.6986L5.95318 11.5318L6.09738 11.3024L6.26217 10.9896L6.42697 10.4891L6.48876 10.0929L6.50936 9.84265V8.63318L6.46817 8.59147H0.782772ZM15.4906 12.5536L15.47 12.5744V13.8256L15.4906 14.1384L15.5936 14.5972L15.7584 15.0142L15.9438 15.3687L16.2322 15.7441L16.4588 15.9943L16.706 16.182L16.912 16.328L17.2416 16.4948L17.6536 16.6408L18.1273 16.7242H18.5599L18.9307 16.6616L19.3427 16.5365L19.6723 16.3905L20.0019 16.182L20.2285 15.9943L20.4551 15.7649L20.5993 15.5981L20.8258 15.2436L20.97 14.9517L21.0936 14.5972L21.176 14.2009L21.2172 13.8673V13.5962L21.2378 13.5545V12.9289L21.2172 12.5744L21.1966 12.5536H15.4906ZM13.2247 17.0161L8.1779 17.037L8.09551 17.1621L7.99251 17.7251L7.97191 17.8294L7.99251 17.8502H14.0075L13.9663 17.6209L13.9045 17.2038L13.8427 17.0787L13.7603 17.0161H13.2247ZM7.20974 18.6844L7.12734 18.7886L7.04494 19.0597L6.96255 19.4559V19.5185H14.9963V19.3517L14.9345 19.0597L14.8933 18.8095L14.8109 18.7052L14.7697 18.6844H7.20974ZM6.22097 20.3526L6.13858 20.4569L6.01498 20.8948L5.95318 21.145L7.12734 21.1659H15.264L16.0262 21.145L15.9438 20.7697L15.8614 20.4569L15.7584 20.3526H6.22097Z" fill="currentColor"/>
</svg>
