<svg  viewBox="0 0 24 24" fill="none" xmlns="http://www.w3.org/2000/svg">
<g >
<path d="M5.94737 0H17.2947L20.6632 0.0210526L20.8526 0.0842105L21.2947 0.252632L21.5684 0.4L21.8421 0.610526L22.0105 0.821053L22.179 1.09474L22.2842 1.38947L22.3263 1.62105L22.3474 3.24211V3.72632L22.3263 4.71579L22.2632 4.86316L22.179 4.94737L21.8842 5.01053H19.3158L19.3368 15.9158H21.6105L21.9684 15.9368L22.179 16L22.2842 16.1263L22.3474 16.2737V17.0526L22.3263 19.2632L22.2632 19.6421L22.1579 19.8737L22.0737 20.0421L21.8842 20.3158L21.7158 20.4842L21.3368 20.7158L21 20.8632L20.6 20.9474L19.8 20.9684H13.5895V23.6211L13.5053 23.8316L13.3368 24H13.0211L12.9368 23.9368L12.4526 23.7053L11.5684 23.2632L11.2526 23.0947L11.0842 23.0737L9.98948 23.6211L9.58948 23.8316L9.31579 23.9789L9.29474 24H8.91579L8.76842 23.8105L8.72632 23.7263L8.70527 23.5579V20.9474L8.64211 20.9684H5.16842L4.78948 20.9474L4.30526 20.8421L3.96842 20.6737L3.77895 20.5474L3.65263 20.4421L3.3579 20.1053L3.23158 19.8737L3.14737 19.6632L3.08421 19.4105L3.04211 18.7368L3.06316 3.38947L3.08421 1.53684L3.18948 1.17895L3.3579 0.863158L3.56842 0.631579L3.67369 0.526316L3.88421 0.336842L4.22105 0.168421L4.5579 0.0631579L4.70526 0.0210526L5.94737 0ZM4.85263 0.821053L4.6 0.863158L4.41053 0.947368L4.22105 1.07368L4.05263 1.24211L3.90526 1.53684L3.84211 1.78947V19.2L3.94737 19.5368L4.07369 19.7474L4.26316 19.9368L4.51579 20.0842L4.83158 20.1684L4.9579 20.1895L7.67369 20.2105H8.53684L8.70527 20.1895L8.72632 18L8.57895 17.7474L8.38948 17.4947L8.17895 17.1789L7.98948 16.8211L7.84211 16.4211L7.73684 16L7.71579 15.7684V15.3053L7.7579 14.9053L7.86316 14.4842L8.03158 14.0632L8.2 13.7263L8.34737 13.4737L8.51579 13.2421L8.6 13.1368L8.85263 12.8842L9.02105 12.7368L9.25263 12.5684L9.63158 12.3579L9.92632 12.2316L10.4105 12.1053L10.6421 12.0632L10.8737 12.0421H11.5684L11.8842 12.0842L12.3263 12.2105L12.7053 12.3789L12.9368 12.5053L13.1263 12.6316L13.4 12.8421L13.5684 12.9895L13.7368 13.1579L13.9263 13.4105L14.1368 13.7263L14.3053 14.0632L14.4526 14.4421L14.5579 14.9053L14.6 15.2421V15.6421L14.5579 16L14.4737 16.3789L14.3684 16.7158L14.2632 16.9684L14.0526 17.3474L13.8842 17.6L13.7158 17.7684L13.6105 17.9579L13.5895 18.0842L13.5684 18.8842L13.5474 18.9263V19.0737L13.5684 19.0947L13.5895 20.1684H18.8526L18.8105 20.0632L18.7053 19.8526L18.579 19.4737L18.5158 19.1368V1.78947L18.6211 1.32632L18.7263 1.07368L18.8316 0.884211V0.821053H4.85263ZM20.2421 0.821053L20.0737 0.863158L19.779 1.01053L19.6737 1.09474L19.5263 1.26316L19.4 1.45263L19.3368 1.62105L19.2947 1.97895V4.21053H21.5053L21.5684 4.18947V2.14737L21.5474 2.10526L21.5263 1.62105L21.379 1.32632L21.1895 1.11579L21 0.968421L20.7684 0.863158L20.579 0.821053H20.2421ZM10.8316 12.8L10.3684 12.9053L10.0316 13.0316L9.67369 13.2421L9.37895 13.4737L9.23158 13.6L9.04211 13.8526L8.9579 13.9579L8.78948 14.2526L8.64211 14.5684L8.5579 14.8421L8.49474 15.2842L8.47369 15.3474V15.5368L8.5579 16.0842L8.70527 16.5263L8.89474 16.8842L9.06316 17.1158L9.25263 17.3474L9.31579 17.3684V17.4105L9.56842 17.6L9.77895 17.7474L10.0947 17.9158L10.3684 18.0211L10.7053 18.1053H11.6105L12.0105 18L12.4105 17.8316L12.7263 17.6211L12.9368 17.4526L13.2105 17.1789L13.4421 16.8632L13.6105 16.5474L13.779 16.0421L13.8211 15.7263V15.2L13.7579 14.8211L13.6526 14.5053L13.4842 14.1474L13.3368 13.9158L13.1474 13.7053L13 13.5368L12.8316 13.3895L12.6211 13.2211L12.1368 12.9684L11.7158 12.8421L11.4842 12.8H10.8316ZM19.3368 16.7368L19.3158 16.7579L19.2947 17.8737V18.5053L19.3158 19.2211L19.3368 19.4105L19.4842 19.7053L19.6105 19.8526L19.9053 20.0421L20.1158 20.1263L20.3263 20.1684H20.5368L20.8105 20.1053L21.0211 20L21.2316 19.8105L21.379 19.6421L21.5053 19.3895L21.5684 19.0947V16.8211L21.5474 16.7368H19.3368ZM9.52632 18.5053L9.50527 18.5895V22.9474L9.58948 22.9263L10.1789 22.6526L10.5368 22.4632L10.8737 22.2947L10.9789 22.2526H11.2947L11.5684 22.3579L12.0737 22.6316L12.6421 22.9053L12.7474 22.9684H12.7895V18.5263L12.7053 18.5474L12.2632 18.7158L11.9053 18.8211L11.5053 18.8842H11.2737L11.2316 18.9053H11.0632L10.9579 18.8842L10.8947 18.9053L10.5368 18.8421L10.1789 18.7579L9.82105 18.6316L9.52632 18.5053Z" fill="currentColor"/>
<path d="M8.68421 2.69473H8.87368L9 2.75789L9.06316 2.8V2.8421L9.14737 2.88421L9.35789 3.15789L9.58947 3.45263L9.71579 3.62105L9.88421 3.83157L9.92632 3.95789L9.98947 3.93684L10.2211 3.6421L10.3053 3.51579L10.4737 3.32631L10.6211 3.11579L10.8737 2.82105L11.0632 2.69473H11.2737L11.4421 2.82105L11.6316 3.01052L11.8842 3.34736L12.0947 3.62105L12.3474 3.93684H12.3895L12.4947 3.76842L12.6842 3.53684L12.8105 3.36842L12.9789 3.15789L13.1474 2.92631L13.2316 2.8421H13.2737L13.2947 2.77894L13.4211 2.69473H13.6526L13.8632 2.86315L14.0526 3.07368L14.2632 3.34736L14.4947 3.6421L14.9158 4.18947L15.0842 4.42105L15.1263 4.52631V4.73684L14.9789 4.90526L14.9158 4.96842L14.8105 5.01052H14.6632L14.5158 4.92631L14.2632 4.67368L14.0526 4.4L13.8211 4.10526L13.6105 3.83157L13.5684 3.76842L13.4842 3.78947L13.3579 4L13.1895 4.18947L13.0211 4.42105L12.8526 4.63157L12.7263 4.8L12.5789 4.94736L12.4105 5.01052H12.2842L12.1158 4.92631L11.9474 4.75789L11.7579 4.50526L11.4211 4.08421L11.2105 3.78947L11.1053 3.81052L10.9158 4.06315L10.7263 4.29473L10.5789 4.50526L10.4105 4.69473L10.2842 4.86315L10.1789 4.94736L9.98947 5.03157H9.92632V4.98947L9.77895 4.96842L9.67368 4.88421L9.48421 4.65263L9.33684 4.46315L9.12632 4.18947L8.95789 3.97894L8.81053 3.76842L8.74737 3.74736L8.70526 3.85263L8.55789 4.02105L8.41053 4.23157L8.2421 4.4421L8.09474 4.63157L7.8 4.94736L7.58947 5.03157L7.37895 4.94736L7.23158 4.77894L7.21053 4.73684V4.48421L7.33684 4.27368L7.48421 4.10526L7.65263 3.87368L7.8 3.68421L7.92632 3.51579H7.96842L8.01053 3.43157L8.15789 3.22105L8.36842 2.96842L8.45263 2.8421L8.6421 2.71579L8.68421 2.69473Z" fill="currentColor"/>
<path d="M6.01053 7.78946H16.3474L16.5158 7.85262L16.6211 7.97893L16.6421 8.04209V8.31577L16.5789 8.44209L16.4737 8.5263L16.3474 8.56841H5.98947L5.8 8.46314L5.69474 8.33683L5.67368 8.25262V8.10525L5.73684 7.95788L5.8421 7.85262L6.01053 7.78946Z" fill="currentColor"/>
<path d="M10.8316 13.5579H11.4842L11.8211 13.6421L12.1789 13.8316L12.3684 13.9579L12.5158 14.0842V14.1263L12.6 14.1684L12.7684 14.4L12.9368 14.6947L13.0211 14.9474L13.0842 15.221V15.6842L13 16.0632L12.8737 16.3579L12.7474 16.5684L12.4316 16.9053L12.2211 17.0737L11.9263 17.2421L11.5684 17.3474L11.3158 17.3895H11L10.6421 17.3263L10.3684 17.221L10.0947 17.0737L9.88421 16.8842L9.63158 16.6316L9.44211 16.3368L9.31579 16.0421L9.23158 15.7263V15.221L9.31579 14.8632L9.48421 14.5263L9.61053 14.3158L9.69474 14.2105H9.73684L9.77895 14.1263L9.92632 13.9789L10.0947 13.8526L10.3263 13.7263L10.5789 13.621L10.8316 13.5579ZM11.0211 14.3158L10.6842 14.421L10.4105 14.5895L10.2632 14.7579L10.1368 14.9895L10.0737 15.1158L10.0316 15.3263V15.6L10.0947 15.8737L10.2211 16.1053L10.4316 16.3368L10.6211 16.4632L10.8526 16.5684L10.9368 16.5895H11.3579L11.6737 16.4842L11.8421 16.3789L12.0316 16.2105L12.1789 15.9789L12.2632 15.7895L12.2842 15.6L12.3053 15.5579V15.3895L12.2421 15.0947L12.1158 14.8421L11.9474 14.6316L11.7789 14.5053L11.5263 14.3789L11.2737 14.3158H11.0211Z" fill="currentColor"/>
<path d="M7.71579 9.30527H14.6211L14.8737 9.34737L15.0211 9.43158L15.1053 9.53685L15.1263 9.57895V9.83158L15.0632 9.9579L14.9579 10.0421L14.8316 10.0842L14.6 10.1053H7.58947L7.42105 10.0632L7.29474 9.97895L7.21053 9.83158V9.57895L7.33684 9.41053L7.4421 9.34737L7.71579 9.30527Z" fill="currentColor"/>
<path d="M6.05263 6.23157H13.1684L13.3368 6.27367L13.4632 6.35788L13.5895 6.50525L13.6105 6.56841V6.71578L13.5263 6.8842L13.4 6.98946L13.2526 7.03157H6.01053L5.82105 6.96841L5.71579 6.84209L5.69474 6.79999V6.4842L5.77895 6.35788L6.05263 6.23157Z" fill="currentColor"/>
<path d="M14.7053 6.23157H16.2L16.4316 6.27367L16.5579 6.35788L16.6421 6.4842L16.6632 6.67367L16.6 6.86315L16.5158 6.96841L16.3263 7.03157H14.6842L14.5158 6.96841L14.4105 6.86315L14.3684 6.79999V6.4842L14.4737 6.33683L14.7053 6.23157Z" fill="currentColor"/>
</g>
</svg>
