<svg viewBox="0 0 24 24" fill="none" xmlns="http://www.w3.org/2000/svg">
<g>
<path d="M11.0584 0.0437927H12.7664L13.5109 0.131065L14.3212 0.261975L15 0.414702L15.6788 0.611065L16.2701 0.829247L16.8394 1.06925L17.3869 1.33107L18.0219 1.68016L18.5474 2.02925L18.7664 2.22561L18.854 2.40016V2.59652L18.7664 2.8147L18.635 2.92379L18.5037 2.96743H18.2628L18.0438 2.85834L17.5182 2.53107L17.0584 2.26925L16.4015 1.94197L15.8759 1.72379L15.2847 1.50561L14.562 1.30925L13.8175 1.15652L13.1825 1.06925L12.1971 1.00379L11.9343 0.981974H11.6496L11.4526 1.00379L10.5328 1.06925L9.74453 1.20016L9.08759 1.35288L8.51825 1.52743L7.9708 1.72379L7.51095 1.92016L6.87591 2.22561L6.56934 2.40016L6.13139 2.66197L5.58394 3.03288L5.29927 3.25107L5.05839 3.44743L4.79562 3.64379L4.57664 3.86197L4.40146 4.0147L4.18248 4.21107L4.05109 4.32016L3.87591 4.53834L3.54744 4.88743L3.37226 5.08379L3.21898 5.30197L3.13139 5.41106H3.08759L3.0438 5.52016L2.80292 5.86925L2.51825 6.30561L2.16788 6.93834L1.92701 7.44016L1.68613 8.05106L1.51095 8.5747L1.40146 8.94561L1.22628 9.73106L1.11679 10.4511L1.05109 11.1492L1.0292 11.6292V12.3711L1.07299 13.0911L1.16058 13.7892L1.29197 14.4438L1.44526 15.0329L1.68613 15.7529L1.90511 16.2765L2.12409 16.7347L2.38686 17.2147L2.71533 17.7383L2.9781 18.1092L3.17518 18.3711L3.43796 18.6983L3.63504 18.9383L4.77372 20.0729L5.0146 20.2692L5.23358 20.4438L5.47445 20.6402L5.71533 20.8147L6.17518 21.1202L6.61314 21.382L7.09489 21.6438L7.46715 21.8183L8.10219 22.0802L8.82482 22.3202L9.61314 22.5165L10.4015 22.6474L11.3212 22.7347H12.5693L13.2701 22.6692L13.8613 22.582L14.4745 22.4511L15.1095 22.2765L15.3285 22.2111L15.2409 22.0583L15.0657 21.8183L14.8905 21.5347L14.6277 21.0329L14.4526 20.5747L14.3212 20.0729L14.2774 19.8111L14.2555 19.5492V18.6547L14.2993 18.3056L14.3869 17.8692L14.4307 17.7165H8.14599L7.92701 17.6292L7.83942 17.5202L7.79562 17.4329L7.77372 17.302V16.822L7.79562 16.7565H4.51095L4.24817 16.7347L4.0292 16.6474L3.94161 16.5383L3.87591 16.2765L3.85401 16.1238V15.8183L3.87591 15.7529L3.91971 14.9892L3.9635 14.5747L4.07299 14.0292L4.20438 13.5929L4.37956 13.1783L4.59854 12.7638L4.81752 12.4365L5.0365 12.1529L5.23358 11.9347L5.29927 11.8474H5.34307L5.36496 11.782L5.54015 11.6292L5.69343 11.4983L5.89051 11.3456L6.06569 11.2147L6.17518 11.1492H6.21898L6.19708 11.0402L5.9781 10.7129L5.78102 10.3638L5.64963 10.0365L5.54015 9.68743L5.47445 9.27288V8.55288L5.54015 8.13834L5.62774 7.81106L5.80292 7.3747L5.9781 7.06925L6.10949 6.87288L6.37226 6.54561L6.48175 6.4147L6.67883 6.26197L6.9854 6.02197L7.31387 5.82561L7.68613 5.65106L8.18978 5.49834L8.67153 5.43288H8.82482L8.86861 5.41106H9L9.0438 5.43288H9.26277L9.45985 5.47652L9.76642 5.52016L10.1825 5.65106L10.4891 5.78197L10.9051 6.02197L11.1898 6.24016L11.4526 6.48016L11.6496 6.69834L11.9124 7.04743L11.9781 7.02561L12.0657 6.87288L12.3066 6.61106L12.4599 6.43652L12.7226 6.19652L12.9854 6.00016L13.3139 5.80379L13.6642 5.65106L14.1022 5.52016L14.562 5.4547H15.2409L15.7007 5.52016L16.1606 5.65106L16.5547 5.82561L16.8175 5.97834L17.146 6.21834L17.2993 6.37106L17.3431 6.39288V6.43652H17.3869V6.48016H17.4307L17.6277 6.72016L17.8686 7.06925L18.0438 7.3747L18.219 7.81106L18.3066 8.13834L18.3723 8.48743L18.3942 8.70561V9.07652L18.3504 9.44743L18.2628 9.84016L18.1095 10.2983L17.8686 10.7565L17.7153 10.9747L17.6496 11.062V11.1274L17.8467 11.2583L18.1095 11.4547L18.2628 11.6074L18.3942 11.7165V11.7602H18.438V11.8038H18.4818V11.8474H18.5255V11.8911H18.5693L18.7226 12.0656L18.8759 12.2183L19.1606 12.6329L19.3358 12.9165L19.5328 13.2874L19.708 13.7456L19.8394 14.1383L19.9051 14.2474V14.2911L19.9927 14.3347L20.1241 14.3783L20.365 14.422L20.8248 14.5747L21.3504 14.8147L21.7226 15.0329L21.9635 15.2074L22.1606 15.3602L22.2482 15.4256H22.292L22.4234 14.8583L22.5766 14.2692L22.6642 13.8329L22.7518 13.2438L22.8175 12.5892L22.8394 12.1965V11.4111L22.7956 10.822L22.7299 10.2547L22.6204 9.66561L22.5109 9.18561L22.3577 8.64016L22.1168 7.94197L21.7226 7.06925L21.4818 6.61106L21.1314 6.02197L20.9343 5.6947L20.8467 5.47652V5.34561L20.9781 5.12743L21.1314 4.99652L21.1971 4.9747H21.4599L21.635 5.08379L21.8102 5.25834L22.073 5.67288L22.2701 6.00016L22.5109 6.43652L22.7299 6.8947L22.8613 7.17834L23.0584 7.68016L23.3212 8.46561L23.4964 9.12016L23.6496 9.84016L23.7372 10.4074L23.8029 10.9965L23.8248 11.3892V12.2838L23.7591 13.1347L23.6715 13.7674L23.5401 14.4656L23.3212 15.2729L23.1679 15.7529L23.0584 16.0802V16.2983L23.1898 16.5165L23.365 16.8002L23.5839 17.2583L23.7372 17.6947L23.8248 18.022L23.9124 18.4583V19.7456L23.8686 19.942L23.781 20.3565L23.6496 20.7929L23.4307 21.2947L23.2117 21.6874L23.0584 21.9056L22.7737 22.2765L22.5766 22.4947L22.3577 22.7129L21.9854 22.9965L21.7664 23.1492L21.4818 23.3238L21.1314 23.4983L20.781 23.6511L20.4307 23.7602L19.7956 23.8911L19.5985 23.9129H18.5912L18.1314 23.8474L17.6496 23.7383L17.2336 23.5856L16.7299 23.3456L16.4234 23.1492L16.1387 22.9965L16.0073 23.0183L15.0657 23.302L14.3431 23.4765L13.4672 23.6292L12.6131 23.7165L12.1095 23.7383H11.7372L11.1679 23.7165L10.1825 23.6074L9.37226 23.4547L8.67153 23.2802L8.0365 23.0838L7.29197 22.8002L6.76642 22.5602L6.41606 22.3856L6 22.1674L5.49635 21.862L4.9489 21.4911L4.68613 21.2947L4.44526 21.0983L4.24817 20.9456L4.09489 20.7929L3.91971 20.6402L2.9781 19.702L2.82482 19.5274L2.60584 19.2438L2.40876 19.0038L2.14598 18.6329L1.9927 18.4147L1.81752 18.1311L1.53285 17.6511L1.31387 17.2583L1.05109 16.6911L0.766423 15.9929L0.59124 15.4911L0.437956 14.9892L0.262773 14.2474L0.153284 13.5929L0.0875907 13.0911L0.0656929 12.7856V11.062L0.109489 10.4511L0.19708 9.86197L0.350364 9.09834L0.547445 8.37834L0.810218 7.6147L1.0073 7.15652L1.20438 6.72016L1.42336 6.28379L1.64234 5.91288L1.77372 5.67288L1.92701 5.4547L2.05839 5.23652L2.18978 5.06197L2.40876 4.75652L2.56204 4.56016L2.78102 4.29834L2.9562 4.08016L3.15328 3.88379L3.28467 3.73107H3.32847L3.37226 3.64379H3.41606L3.45985 3.55652H3.50365L3.54744 3.46925H3.59124L3.63504 3.38197L3.76642 3.27288L4.16058 2.88016L4.44526 2.66197L4.70803 2.44379L4.9489 2.26925L5.80292 1.70197L6.43796 1.35288L6.78832 1.17834L7.31387 0.938338L7.88321 0.720156L8.47445 0.523793L9.13139 0.349247L9.65693 0.240156L10.3139 0.131065L11.0584 0.0437927ZM8.78102 6.37106L8.32117 6.45834L7.90511 6.61106L7.59854 6.78561L7.29197 7.00379L7.07299 7.20016V7.24379H7.0292L6.85401 7.50561L6.67883 7.78925L6.54745 8.0947L6.45985 8.42197L6.39416 8.83652V8.96743L6.41606 8.98925L6.45985 9.33834L6.52555 9.60016L6.63504 9.88379L6.83212 10.2547L7.0292 10.5165L7.22628 10.7347L7.51095 10.9529L7.75182 11.1056L8.05839 11.2583L8.34307 11.3456L8.93431 11.4111H9L9.10949 10.7565L9.21898 10.342L9.35036 10.0147L9.52555 9.70925L9.76642 9.38197L9.91971 9.20743L10.1387 9.0547L10.3796 8.88016L10.6423 8.72743L11.0803 8.55288L11.3869 8.44379L11.365 8.24743L11.2336 7.89834L11.0803 7.59288L10.9051 7.33106L10.6642 7.06925L10.4672 6.8947L10.2263 6.74197L9.85401 6.54561L9.59124 6.45834L9.10949 6.37106H8.78102ZM14.8905 6.37106L14.7372 6.39288L14.4526 6.43652L14.0803 6.54561L13.7299 6.69834L13.3577 6.93834L13.073 7.17834L12.8978 7.3747L12.7007 7.65834L12.5255 8.05106L12.4599 8.3347L12.4818 8.44379L12.9416 8.61834L13.4453 8.85834L13.6642 9.01106L13.8394 9.14197L13.9708 9.27288H14.0146V9.31652H14.0584V9.36016H14.1022L14.146 9.44743L14.3212 9.68743L14.4964 9.99288L14.6715 10.4292L14.7591 10.8002L14.8029 11.1492V11.302L14.8686 11.3892H15.2409L15.5693 11.3238L15.9854 11.1711L16.3139 10.9747L16.4891 10.8438L16.708 10.6474L16.927 10.4074L17.1679 10.0147L17.2774 9.7747L17.3869 9.40379L17.4307 9.12016V8.77106L17.3869 8.46561L17.2993 8.11652L17.146 7.74561L16.9708 7.44016L16.708 7.15652L16.5985 7.02561L16.3577 6.82925L16.1387 6.69834L15.7664 6.52379L15.4599 6.43652L15.0438 6.37106H14.8905ZM11.781 9.36016L11.3869 9.44743L11.0584 9.57834L10.7956 9.73106L10.5766 9.90561L10.4234 10.0583L10.2263 10.3856L10.0949 10.6692L10.0073 10.9747L9.9854 11.1274V11.4765L10.0511 11.8038L10.1606 12.1092L10.4234 12.5238L10.5985 12.7202L10.8832 12.9165L11.0365 13.0038L11.2117 13.0911L11.4526 13.1783L11.7372 13.222H12.1752L12.219 13.2002L12.4818 13.1565L12.7664 13.0474L13.0511 12.8729L13.2701 12.6765L13.4234 12.5238L13.5766 12.3056L13.7518 11.9565L13.8394 11.6511V10.9529L13.7299 10.582L13.5547 10.2329L13.3577 10.0147L13.2701 9.90561L13.0292 9.70925L12.7226 9.5347L12.438 9.42561L12.1752 9.38197L11.781 9.36016ZM6.9854 11.782L6.65693 11.9783L6.48175 12.1092L6.26277 12.2838L5.75912 12.7856L5.47445 13.2002L5.27737 13.5492L5.08029 14.0074L4.9708 14.3565L4.88321 14.7929L4.83942 15.2511L4.81752 15.382V15.5783L4.83942 15.7529L4.88321 15.7965H7.64234L7.75182 15.7311L7.86131 15.6002L8.0365 15.0765L8.21168 14.6838L8.43066 14.2692L8.58394 14.0729L8.67153 13.942L8.80292 13.7892L8.93431 13.6802L9.08759 13.5056L9.24088 13.3529L9.45985 13.1783L9.61314 13.0692L9.56934 12.9602L9.37226 12.5892L9.24088 12.4147L9.08759 12.3492L8.9562 12.3274H8.60584L8.56204 12.3056L8.27737 12.2838L7.86131 12.1747L7.57664 12.0656L7.07299 11.8038L6.9854 11.782ZM16.8175 11.8256L16.6423 11.8911L16.1606 12.1092L15.6569 12.262L15.2628 12.3056L15.219 12.3274L14.7372 12.3492L14.6058 12.4147L14.4964 12.5892L14.2555 13.0256L14.2774 13.0911L14.5182 13.2874L14.8029 13.5274L15.0219 13.7456L15.3285 14.1383L15.5036 14.422L15.7445 14.8802L15.854 15.1856L15.9416 15.4038L16.0292 15.382L16.3139 15.142L16.6423 14.9456L16.8394 14.8365L17.1898 14.662L17.6058 14.5092L18.0219 14.4002L18.3723 14.3347L18.8321 14.2911L18.8102 14.0947L18.5912 13.5711L18.3723 13.1783L18.1971 12.9383L17.9562 12.6329L17.781 12.4365L17.4964 12.2183L17.2993 12.0438L17.0584 11.8911L16.9489 11.8256H16.8175ZM10.2701 13.7892L10.0292 13.942L9.74453 14.2038L9.65693 14.2474L9.41606 14.5529L9.26277 14.7274L9.0438 15.1202L8.89051 15.4911L8.78102 15.9274L8.71533 16.4947L8.69343 16.7565L8.75912 16.7783H10.8394L14.6934 16.7565L14.8467 16.6911L15.0657 16.4729L15.1095 16.342V16.0583L15.0876 16.0365L15.0438 15.7311L14.9343 15.382L14.6934 14.8802L14.4307 14.5092L14.1898 14.2474L13.9489 14.0292L13.708 13.8765L13.5985 13.7892H13.3796L12.8759 14.0074L12.5912 14.0947L12.1752 14.1602H11.6715L11.6277 14.1383L11.2774 14.0947L10.8613 13.9638L10.4672 13.7892H10.2701ZM18.8321 15.2074L18.7664 15.2292L18.3504 15.2729L17.8248 15.4256L17.4745 15.5565L16.9927 15.8183L16.708 16.0365L16.5328 16.1892L16.3139 16.3856L16.1606 16.5602L15.9635 16.7783L15.854 16.9529L15.6788 17.2365L15.5036 17.5856L15.3285 18.0656L15.2409 18.4365L15.1971 18.8511V19.3747L15.2409 19.7892L15.3942 20.3565L15.5255 20.6838L15.7007 21.0329L15.8759 21.2947L16.0511 21.5347L16.292 21.7965L16.5766 22.0802L16.8175 22.2547L17.1241 22.4511L17.3869 22.6038L17.8029 22.7783L18.0876 22.8656L18.4818 22.9529L18.854 22.9747H19.0073L19.0511 23.0183L19.1606 22.9965L19.1825 22.9747H19.4015L19.7956 22.9311L20.0803 22.8656L20.4745 22.7347L20.6715 22.6474L21.0219 22.4729L21.3285 22.2765L21.5474 22.1238L21.8102 21.8838L21.9416 21.7311L22.073 21.622L22.3577 21.2292L22.5985 20.8147L22.7737 20.4002L22.8832 20.0074L22.9489 19.702L22.9708 19.462V19.3092L22.9927 19.1565V18.9602L22.9708 18.8074L22.927 18.4147L22.8175 17.9565L22.6642 17.542L22.4015 17.0402L22.2044 16.7783L22.0511 16.582L21.5912 16.1238L21.3504 15.9492L21.0438 15.7529L20.6277 15.5347L20.146 15.3602L19.7737 15.2729L19.3577 15.2292L19.2263 15.2074H18.8321Z" fill="currentColor"/>
<path d="M17.9124 16.9309H18.1314L18.6131 17.04L18.9635 17.2145L19.0292 17.2582H19.1606L19.4015 17.1055L19.6861 16.9964L19.9927 16.9309H20.2993L20.6496 17.0182L21 17.1927L21.1971 17.3455L21.3942 17.5418L21.5912 17.8473L21.7226 18.1964V19.0691L21.635 19.3527L21.4818 19.6582L21.3066 19.8982L20.7153 20.4873L20.6058 20.5309V20.5745L20.4307 20.7273L20.0365 21.12L19.8613 21.2727L19.4015 21.7309L19.2263 21.8182L19.0511 21.84L18.854 21.7745L18.6569 21.6218L18.635 21.5564L18.5693 21.5345L18.438 21.3818L18.2628 21.2291L17.8905 20.8582L17.6715 20.6836L17.5182 20.5527V20.5091L17.4307 20.4655V20.4218L17.3431 20.3782L16.9489 19.9855L16.7737 19.7673L16.6204 19.5273L16.5109 19.2655L16.4453 19.0473L16.4234 18.8727V18.48L16.4891 18.1527L16.5985 17.8691L16.7518 17.6073L16.9051 17.4109L17.1022 17.2364L17.4526 17.04L17.9124 16.9309ZM17.9562 17.8909L17.7372 17.9782L17.562 18.1309L17.4526 18.2836L17.3869 18.5455V18.8509L17.4526 19.0691L17.6496 19.3091L18.438 20.0945H18.4818L18.5255 20.1818L18.7007 20.3345L18.854 20.4873H18.8978L18.9416 20.5745L19.0511 20.6836L19.1606 20.6618L19.1825 20.5964L19.2482 20.5745L19.4015 20.4L19.5985 20.2036L19.7737 20.0509L19.9927 19.8545L20.1022 19.7236L20.1679 19.68V19.6364L20.2555 19.5927V19.5491L20.3431 19.5055V19.4618L20.4307 19.4182L20.5401 19.2873L20.6496 19.1782L20.7591 18.9818L20.781 18.7855L20.8029 18.7418V18.5673L20.7372 18.3273L20.6058 18.1091L20.4526 17.9782L20.2117 17.8909H20.0803L19.7737 18.0218L19.4672 18.24L19.3796 18.3055L19.2263 18.3709H18.9416L18.7226 18.2618L18.5693 18.1091L18.2628 17.9345L18.1095 17.8909H17.9562Z" fill="currentColor"/>
<path d="M19.8613 3.35999H20.1022L20.2993 3.44726L20.4088 3.57817L20.4964 3.79635L20.4745 3.97089L20.3431 4.18908L20.1898 4.27635L20.0146 4.31999L19.7518 4.25453L19.6204 4.16726L19.5328 3.99271V3.66544L19.6642 3.46908L19.8175 3.3818L19.8613 3.35999Z" fill="currentColor"/>
</g>
</svg>
