<svg viewBox="0 0 24 24" fill="none" xmlns="http://www.w3.org/2000/svg">
<path d="M12.8116 5.73423C12.7725 5.74407 12.5721 5.77851 12.3718 5.80804C10.7491 6.07374 9.2878 7.10702 8.40807 8.61759C8.22235 8.94234 7.92422 9.63119 7.92422 9.73944C7.92422 9.77388 7.76294 9.68532 7.56255 9.55247L7.20577 9.30645L7.17645 9.0309C7.08848 8.16491 6.17453 7.66795 5.39744 8.06158C4.85005 8.34697 4.58613 9.14407 4.86471 9.69024C4.96735 9.89197 5.25082 10.1577 5.47075 10.2659C5.70046 10.3791 6.17453 10.384 6.43845 10.2758L6.63884 10.1921L7.14224 10.5316L7.65053 10.8711L7.65541 11.5255C7.66519 12.2587 7.75316 12.7753 7.98287 13.4347C8.17348 13.9759 8.29078 14.2023 8.66711 14.7681C9.35623 15.8063 10.3826 16.5985 11.536 16.9774C12.23 17.2037 12.8605 17.2873 13.6571 17.2578C14.703 17.2234 15.5437 16.9675 16.4185 16.4312L16.7753 16.2098L17.2298 16.6772C17.6795 17.1447 17.6843 17.1545 17.7137 17.435C17.7332 17.6121 17.787 17.7991 17.8652 17.927C17.9336 18.0402 18.4712 18.6257 19.0528 19.226C20.2551 20.4561 20.3675 20.5397 20.9296 20.5397C21.5014 20.5397 21.9804 20.2051 22.1808 19.6688C22.2101 19.5803 22.2394 19.3687 22.2394 19.1866C22.2443 18.6798 22.1465 18.5322 20.91 17.2627C19.7615 16.0769 19.6393 15.9884 19.1408 15.9195C18.916 15.885 18.8622 15.8506 18.4517 15.4422L18.002 14.9944L18.2122 14.6697C18.9502 13.5134 19.263 12.2341 19.1212 10.9203C18.9697 9.51802 18.4419 8.37157 17.5084 7.43177C16.4039 6.31976 14.9132 5.69979 13.403 5.71455C13.1195 5.71947 12.8507 5.72931 12.8116 5.73423ZM14.4587 6.47721C14.9279 6.5707 15.5046 6.79704 16.0177 7.08734C16.5505 7.39241 17.396 8.23872 17.743 8.80948C18.2464 9.64595 18.481 10.4923 18.481 11.5009C18.481 11.8306 18.4517 12.2587 18.4126 12.4604C18.0069 14.5664 16.3208 16.2147 14.2045 16.5591C13.1537 16.7313 12.0883 16.569 11.1255 16.0818C10.583 15.8063 10.363 15.6439 9.86452 15.1617C8.93102 14.2564 8.39341 13.0902 8.32499 11.8159L8.30055 11.3041L8.61334 11.5157C8.7844 11.6338 8.9408 11.7519 8.95546 11.7765C8.97501 11.8011 8.99945 11.9585 9.01411 12.1308C9.08253 12.8393 9.49307 13.7594 10.0356 14.4187C10.5292 15.0141 11.3845 15.5652 12.1763 15.7965C12.6992 15.949 13.7207 15.9884 14.2827 15.8703C16.267 15.4668 17.7039 13.8037 17.831 11.7568C17.9727 9.47374 16.3648 7.45145 14.1117 7.08242C13.5545 6.99385 12.6894 7.04798 12.1616 7.20543C11.1059 7.52034 10.2995 8.12555 9.68368 9.06535C9.43443 9.4393 9.0972 10.2167 9.0972 10.4086C9.0972 10.5415 9.01411 10.5267 8.75997 10.3545C8.51071 10.1823 8.50093 10.1724 8.53515 10.0002C8.58402 9.71976 9.02389 8.83409 9.2878 8.46998C10.1578 7.28908 11.3992 6.5707 12.9094 6.3788C13.2075 6.34436 14.0677 6.39356 14.4587 6.47721ZM14.1019 7.74668C14.8741 7.89921 15.441 8.20919 16.0666 8.83409C16.5505 9.31629 16.79 9.69516 16.9903 10.2807C17.3227 11.2648 17.2543 12.2095 16.7948 13.164C16.1644 14.468 14.8545 15.3044 13.4372 15.3044C12.7383 15.3044 12.1958 15.1666 11.5409 14.8124C11.1157 14.586 10.3484 13.8185 10.1089 13.3855C9.93294 13.0607 9.65925 12.3128 9.70323 12.2685C9.72767 12.2439 10.8664 12.9968 11.0375 13.1493C11.1059 13.2132 11.1548 13.3363 11.1743 13.4986C11.2623 14.158 11.7315 14.5811 12.3718 14.586C13.1097 14.586 13.6522 13.9907 13.5789 13.2575C13.5643 13.1148 13.5154 12.9328 13.4714 12.8442L13.3883 12.6868L13.9211 11.7962L14.4538 10.9007L14.7177 10.8711C14.8643 10.8564 15.0549 10.8121 15.1331 10.7776C15.2749 10.7186 15.3042 10.7334 16.0373 11.2156L16.7948 11.7224L16.8095 11.5797C16.8339 11.4025 16.7264 10.5316 16.6678 10.4283C16.6433 10.384 16.4478 10.2315 16.2328 10.0937C15.8956 9.87721 15.8418 9.81817 15.8418 9.70008C15.8418 9.39501 15.6903 9.03582 15.4557 8.80456C15.2016 8.54378 14.9865 8.46506 14.5515 8.46506C13.9553 8.46506 13.447 8.95218 13.4079 9.56231C13.3932 9.77388 13.4128 9.93134 13.4665 10.0593C13.5105 10.1626 13.5447 10.2807 13.5447 10.3151C13.5447 10.3742 12.6308 11.9438 12.5086 12.0914C12.4793 12.1258 12.3864 12.1554 12.3033 12.1554C12.2202 12.1554 12.0541 12.1898 11.9319 12.2341L11.7071 12.3128L10.8078 11.7174C10.3093 11.3878 9.84497 11.0729 9.77166 11.0237L9.64458 10.9302L9.71301 10.63C9.87918 9.91658 10.2555 9.26708 10.8273 8.72584C11.712 7.87461 12.9094 7.52034 14.1019 7.74668ZM6.38958 8.61759C6.74147 8.94726 6.73658 9.40485 6.3798 9.69024C5.9937 9.9953 5.39744 9.76404 5.30458 9.27692C5.26059 9.02598 5.31924 8.86361 5.53429 8.64711C5.72001 8.46014 5.73467 8.45521 5.9937 8.4749C6.1892 8.48966 6.29672 8.52902 6.38958 8.61759ZM14.9621 9.09979C15.1478 9.23264 15.3042 9.49342 15.3042 9.67056C15.3042 10.0101 14.9572 10.3447 14.6053 10.3447C14.2241 10.3447 13.9357 10.0543 13.9357 9.67056C13.9357 9.12439 14.532 8.79472 14.9621 9.09979ZM12.8703 12.9328C13.0218 13.1001 13.056 13.1739 13.056 13.3363C13.056 14.0153 12.2496 14.3253 11.8537 13.7988C11.4822 13.3117 11.8341 12.6572 12.4402 12.7114C12.6503 12.731 12.709 12.7606 12.8703 12.9328ZM18.0851 16.2934L17.9385 16.4312L17.6257 16.1015L17.3129 15.7719L17.4449 15.6341L17.5719 15.5012L17.8994 15.826L18.2317 16.1557L18.0851 16.2934ZM19.3607 16.6723C19.4291 16.7166 19.9472 17.2332 20.519 17.8138C21.389 18.7044 21.5552 18.9012 21.5845 19.0538C21.6334 19.3195 21.5796 19.4769 21.3694 19.6934C21.1984 19.8656 21.1593 19.8804 20.9198 19.8804H20.6559L19.522 18.7339C18.5543 17.7548 18.3832 17.5678 18.3588 17.4104C18.3099 17.1447 18.3637 16.9872 18.5739 16.7707C18.74 16.6034 18.7889 16.5837 18.9991 16.5837C19.1457 16.5837 19.2874 16.6182 19.3607 16.6723Z" fill="currentColor"/>
<path d="M19.5416 12.4604C19.4536 12.9967 19.4536 13.0164 19.5416 13.0754C19.5904 13.1099 19.8397 13.2723 20.0938 13.4445L20.5581 13.7545L20.5923 14.0398C20.6803 14.7385 21.257 15.2158 21.9119 15.142C22.7868 15.0387 23.2511 14.1678 22.8601 13.3707C22.6988 13.0312 22.43 12.8196 22.0586 12.7409C21.8289 12.6867 21.7458 12.6917 21.4525 12.7655L21.1153 12.854L20.392 12.3817C19.9912 12.1209 19.6588 11.9093 19.6491 11.9093C19.6393 11.9093 19.5904 12.1603 19.5416 12.4604ZM22.1514 13.351C22.5913 13.6462 22.5815 14.2416 22.1319 14.5171C21.8533 14.6893 21.5258 14.6254 21.2668 14.3449C21.1055 14.1727 21.0909 13.7053 21.2424 13.533C21.5112 13.228 21.8631 13.1542 22.1514 13.351Z" fill="currentColor"/>
<path d="M4.50304 13.5823C2.93907 13.7545 1.5706 14.9403 1.12096 16.5198C0.959679 17.0708 0.959679 18.114 1.12096 18.6651C1.45331 19.8263 2.29394 20.8104 3.34962 21.2827C4.04363 21.5878 5.14329 21.696 5.87151 21.5287C7.79226 21.081 9.11185 19.3096 8.98478 17.3464C8.9017 16.0523 8.24679 14.9206 7.17156 14.2022C6.43845 13.7151 5.43653 13.4839 4.50304 13.5823ZM5.98392 14.3597C6.77079 14.6451 7.49413 15.2159 7.86557 15.8555C8.23212 16.4804 8.40318 17.2824 8.31521 17.9762C8.10016 19.7033 6.69748 20.9629 4.99178 20.9629C4.42973 20.9629 3.98009 20.8546 3.48157 20.6086C3.14434 20.4413 2.97817 20.3183 2.64583 19.9788C1.95182 19.2801 1.64391 18.547 1.6488 17.5924C1.6488 16.7264 1.93227 15.9687 2.48455 15.3585C2.96351 14.8271 3.4718 14.5122 4.18536 14.3154C4.64477 14.1875 5.56361 14.2121 5.98392 14.3597Z" fill="currentColor"/>
<path d="M4.69853 15.329C4.69853 15.5504 4.67899 15.6489 4.63989 15.6489C4.60567 15.6489 4.46394 15.703 4.32709 15.7669C3.98009 15.9293 3.82369 16.1507 3.76016 16.5739C3.69662 16.9872 3.75527 17.2726 3.97031 17.5334C4.18047 17.7892 4.41018 17.8778 4.95268 17.9122C5.36322 17.9368 5.44631 17.9565 5.55383 18.0599C5.64669 18.1484 5.67601 18.2271 5.67601 18.3797C5.67601 18.6503 5.57827 18.7733 5.30457 18.8422C4.99667 18.9209 4.68876 18.8668 4.47371 18.6946C4.32709 18.5765 4.24889 18.5519 4.03385 18.5519H3.76993V18.7093C3.76993 19.0046 4.03874 19.2801 4.49815 19.4671L4.69853 19.5458V19.8607V20.1756H5.01622H5.3339V19.8607V19.5507L5.62225 19.4425C6.13054 19.2555 6.3407 18.8914 6.3016 18.2517C6.26739 17.6416 5.86174 17.2775 5.21171 17.2726C4.83049 17.2677 4.54703 17.2037 4.46883 17.0955C4.37108 16.9577 4.39063 16.5493 4.49815 16.441C4.7132 16.2245 5.3339 16.2541 5.59782 16.4902C5.73955 16.6133 5.80309 16.6329 6.03768 16.6329C6.28205 16.6329 6.31138 16.6231 6.31138 16.5345C6.31138 16.2245 6.03768 15.9146 5.59293 15.7177L5.3339 15.5997V15.3044V15.0092H5.01622H4.69853V15.329Z" fill="currentColor"/>
</svg>
