<svg viewBox="0 0 24 24" fill="none" xmlns="http://www.w3.org/2000/svg">
<g>
<path d="M20.1224 5.673V6.06752H20.7861H21.4451L19.7464 7.76161C18.1312 9.36752 18.0338 9.4557 17.8759 9.4557C17.6671 9.4557 17.4211 9.55317 17.2354 9.71097L17.0962 9.82701H14.7152H12.3342L12.1949 9.71097C12.0139 9.56245 11.7633 9.4557 11.5823 9.4557C11.2435 9.4557 10.9139 9.72954 10.8629 10.0498C10.7886 10.4907 10.7886 10.4907 8.85316 12.4354L6.97342 14.3245L6.84346 14.2316C6.59747 14.0553 6.09156 13.8557 5.83164 13.8325C5.68776 13.8186 5.52531 13.7768 5.46962 13.7443L5.36287 13.6793V11.0616C5.36287 9.61815 5.37679 8.4114 5.39072 8.36962C5.41856 8.3 6.05907 8.29536 12.1903 8.29536H18.962V7.90085V7.50633L11.8886 7.51562C5.00548 7.52954 4.81519 7.53418 4.71772 7.61773C4.62025 7.70591 4.62025 7.71519 4.62025 10.7738V13.8418L4.23502 14.0181C3.72447 14.2502 3.37173 14.538 3.09789 14.9511C2.77764 15.4291 2.66624 15.7772 2.63839 16.3713C2.61055 16.9608 2.68481 17.3042 2.95401 17.8055L3.13966 18.1536L2.16498 19.1283C1.08818 20.2051 1.07426 20.2329 1.32025 20.4975C1.44557 20.6321 1.52911 20.6646 1.6962 20.646C1.73333 20.6414 2.19282 20.1958 2.7173 19.6574L3.67342 18.6734L3.94726 18.8405C4.5924 19.2304 5.46034 19.3279 6.16582 19.0911C6.78776 18.8823 7.1962 18.576 7.57215 18.0422C7.71139 17.8426 7.85527 17.6662 7.89704 17.6523C7.93882 17.6384 10.6401 17.6245 13.903 17.6245C17.4443 17.6245 19.8857 17.6059 19.9506 17.5827C20.0156 17.5549 20.0852 17.476 20.1177 17.3878C20.1549 17.281 20.1688 16.1068 20.1688 13.3498V9.4557H19.7743H19.3797V13.1456V16.8354H13.7219H8.06877L8.04093 16.362C8.01772 15.8608 7.91097 15.4941 7.69747 15.1553C7.64177 15.0578 7.59072 14.9418 7.59072 14.9C7.59072 14.8489 8.38903 14.0181 9.46118 12.9506C11.2295 11.1916 11.3409 11.0848 11.5823 11.0106C11.7215 10.9688 11.9675 10.8574 12.1253 10.7738L12.4084 10.616H14.7291H17.0451L17.203 10.7321C17.2911 10.7924 17.4118 10.8806 17.4722 10.927C17.5418 10.9781 17.6671 11.0059 17.8203 11.0059C18.2612 11.0059 18.5397 10.7321 18.6093 10.2215C18.6418 9.98946 18.6464 9.98481 20.3591 8.27216L22.0717 6.55486V7.23714V7.92406H22.443H22.819L22.8051 6.68946C22.7911 5.45486 22.7911 5.45486 22.6797 5.36667C22.5776 5.28313 22.4848 5.27849 21.3477 5.27849H20.1224V5.673ZM6.04515 14.6958C6.49072 14.8907 6.48143 14.9835 6.01266 15.0717C5.65063 15.1414 5.48354 15.2295 5.33966 15.4152C5.17721 15.6287 5.14008 15.8933 5.24683 16.1625C5.40928 16.5895 5.8827 16.7658 6.3097 16.557C6.56962 16.4316 6.69494 16.2367 6.73671 15.8933C6.75527 15.7215 6.79704 15.6055 6.85738 15.5498C6.94557 15.4709 6.95021 15.4709 7.01519 15.5591C7.05232 15.6055 7.12194 15.7587 7.17299 15.8933C7.42363 16.557 7.15443 17.5177 6.59747 17.9679C5.59029 18.7848 4.17468 18.4971 3.61308 17.3646C3.4692 17.0675 3.44135 16.9561 3.42278 16.6312C3.39958 16.2135 3.48312 15.8329 3.65485 15.5359C3.90548 15.1181 4.42531 14.7236 4.88945 14.6076C5.1865 14.5333 5.77595 14.5798 6.04515 14.6958Z" fill="currentColor"/>
<path d="M17.8481 14.3059V16.0464H18.2194H18.5907V14.3059V12.5654H18.2194H17.8481V14.3059Z" fill="currentColor"/>
<path d="M14.7384 14.7004V16.0464H15.1097H15.481V14.7004V13.3544H15.1097H14.7384V14.7004Z" fill="currentColor"/>
<path d="M11.6287 14.9093V16.0464H12H12.3713V14.9093V13.7722H12H11.6287V14.9093Z" fill="currentColor"/>
<path d="M16.27 14.9093V16.0464H16.6414H17.0127V14.9093V13.7722H16.6414H16.27V14.9093Z" fill="currentColor"/>
<path d="M13.1603 15.0949V16.0464H13.5549H13.9494V15.0949V14.1435H13.5549H13.1603V15.0949Z" fill="currentColor"/>
<path d="M10.0506 15.2806V16.0464H10.4219H10.7932V15.2806V14.5148H10.4219H10.0506V15.2806Z" fill="currentColor"/>
</g>
</svg>
