<svg viewBox="0 0 24 24" fill="none" xmlns="http://www.w3.org/2000/svg">
<path d="M11.7293 2.52128V3.04257H12.0509H12.3725V2.52128V1.99999H12.0509H11.7293V2.52128Z" fill="currentColor"/>
<path d="M15.6418 3.8506L15.2988 4.18944L15.5346 4.42402L15.7704 4.6586L16.1349 4.30933L16.4993 3.96007L16.2742 3.73591C16.151 3.6108 16.0331 3.51175 16.017 3.51175C16.0009 3.51175 15.8294 3.66293 15.6418 3.8506Z" fill="currentColor"/>
<path d="M7.80074 3.762L7.60243 3.96009L7.94545 4.2885L8.28846 4.62213L8.535 4.41883L8.77618 4.21552L8.44389 3.88711C8.26166 3.70987 8.09015 3.56391 8.058 3.56391C8.02584 3.56391 7.90793 3.65253 7.80074 3.762Z" fill="currentColor"/>
<path d="M11.188 3.79325C8.88874 4.26242 7.36125 6.62909 7.95081 8.80288C8.07944 9.27205 8.34742 9.79334 8.82442 10.4814C9.60156 11.6022 9.84274 12.2278 9.93386 13.4007C9.96065 13.6926 9.99817 13.849 10.0571 13.8959C10.1161 13.948 10.5556 13.9689 11.8847 13.9793C12.8441 13.9897 13.707 13.9793 13.8035 13.9637C14.0822 13.9168 14.1251 13.8334 14.1679 13.3016C14.259 12.0975 14.5699 11.3416 15.3953 10.2886C15.9956 9.51705 16.2314 8.83416 16.2314 7.83849C16.2314 7.15038 16.1188 6.62388 15.8616 6.08173C15.331 4.98701 14.3394 4.16858 13.1496 3.8506C12.7048 3.73591 11.6382 3.70463 11.188 3.79325ZM12.9084 4.52828C13.4765 4.67424 14.0607 5.00265 14.4788 5.40405C15.1702 6.07652 15.481 6.75941 15.5239 7.6821C15.5614 8.61 15.3631 9.15215 14.6235 10.1322C13.9857 10.9767 13.6695 11.7065 13.5087 12.6917L13.4176 13.2599H12.0509H10.6788L10.5609 12.6657C10.3573 11.6335 10.1054 11.0549 9.45149 10.1322C9.23711 9.82983 9.00129 9.46492 8.92625 9.32417C8.30454 8.11999 8.46533 6.74899 9.35502 5.67512C9.8481 5.08085 10.7003 4.57519 11.4185 4.4553C11.7776 4.38753 12.5279 4.42923 12.9084 4.52828Z" fill="currentColor"/>
<path d="M11.6757 5.77418V6.10259L11.4238 6.17557C11.2577 6.21728 11.0915 6.31632 10.9468 6.46228C10.7485 6.64995 10.7164 6.72293 10.6628 7.03571C10.5073 7.93233 10.9575 8.46405 11.8901 8.50575C12.41 8.5266 12.5118 8.54746 12.6404 8.67257C12.7852 8.81332 12.7852 9.2095 12.6404 9.35025C12.5011 9.48578 12.3296 9.52228 11.9169 9.49621C11.6328 9.48057 11.5417 9.44929 11.4185 9.33461C11.2898 9.21471 11.2202 9.19386 10.9629 9.19386C10.6735 9.19386 10.6574 9.19907 10.6574 9.32418C10.6574 9.63175 10.9361 9.92367 11.4238 10.1322L11.6757 10.2417V10.5492V10.862H12.0509H12.4207L12.4368 10.5388L12.4529 10.2208L12.6833 10.1426C12.9942 10.0436 13.3104 9.74122 13.3854 9.48057C13.4819 9.14694 13.4605 8.6465 13.3426 8.42235C13.1228 8.00531 12.8012 7.84371 12.0723 7.79158C11.456 7.74988 11.3541 7.68211 11.3541 7.30678C11.3541 7.00964 11.4667 6.86889 11.7561 6.81676C12.1206 6.75421 12.4582 6.81676 12.6672 6.994C12.8334 7.13996 12.8977 7.16082 13.1603 7.16082H13.4605L13.4283 6.9523C13.3854 6.64474 13.2193 6.45707 12.8012 6.26419L12.4314 6.09216V5.76375L12.4261 5.44055H12.0509H11.6757V5.77418Z" fill="currentColor"/>
<path d="M6.10175 7.81243V8.15128H6.61091H7.12007V7.81243V7.47359H6.61091H6.10175V7.81243Z" fill="currentColor"/>
<path d="M16.9817 7.81243V8.15128H17.4909H18V7.81243V7.47359H17.4909H16.9817V7.81243Z" fill="currentColor"/>
<path d="M7.98296 11.352L7.63995 11.6857L7.84897 11.9255L8.05264 12.1653L8.41709 11.816C8.6154 11.6231 8.78154 11.4615 8.78154 11.4615C8.78154 11.4563 8.67971 11.3572 8.55108 11.2374L8.32062 11.0184L7.98296 11.352Z" fill="currentColor"/>
<path d="M15.5185 11.2165L15.3202 11.4146L15.6633 11.743C16.0384 12.1027 16.0706 12.1079 16.3332 11.8316L16.4672 11.696L16.1242 11.3572C15.9312 11.1695 15.7651 11.0184 15.749 11.0184C15.7329 11.0184 15.6257 11.107 15.5185 11.2165Z" fill="currentColor"/>
<path d="M20.4654 13.6196V13.9897H20.8781H21.2962L19.8223 15.4233L18.3538 16.8569L17.7589 16.2886C17.4373 15.9759 17.1157 15.7048 17.046 15.6839C16.971 15.6631 16.8745 15.6787 16.7995 15.7309C16.6601 15.8143 14.9719 17.7691 14.9719 17.8421C14.9719 17.8994 15.4328 18.2748 15.481 18.2539C15.5025 18.2435 15.8508 17.8577 16.2582 17.3886L16.9924 16.5337L17.6249 17.1384C18.0644 17.5658 18.2895 17.7431 18.3752 17.7431C18.4717 17.7431 18.9433 17.3156 20.2082 16.0906L21.9125 14.4381V14.8916V15.3451H22.2663H22.62L22.5986 14.4068C22.5825 13.5936 22.5718 13.458 22.486 13.3798C22.4056 13.2964 22.2663 13.286 21.4302 13.2704L20.4654 13.2495V13.6196Z" fill="currentColor"/>
<path d="M10.6574 14.6414V14.9802H12.0509H13.4444V14.6414V14.3025H12.0509H10.6574V14.6414Z" fill="currentColor"/>
<path d="M11.6168 15.7257C11.0808 15.8716 10.636 16.2365 10.4269 16.6953C10.3037 16.9716 10.2822 17.6127 10.3894 17.9255C10.443 18.0767 10.443 18.134 10.3948 18.1497C10.2072 18.2122 9.68731 18.6032 9.55868 18.7804C9.26391 19.2027 9.24247 19.3122 9.22103 20.9594L9.19959 22.4868H9.58012H9.96065V21.0324C9.96065 20.1306 9.98209 19.5207 10.0196 19.4268C10.1375 19.1141 10.5663 18.7857 10.8557 18.7857C11.0433 18.7857 11.5149 18.9473 11.5149 19.0098C11.5149 19.0359 11.4077 19.3226 11.2738 19.6406C11.1183 20.0159 11.0326 20.3078 11.0326 20.4538C11.0326 20.678 11.5792 22.1219 11.7561 22.3722C11.8526 22.5025 12.2117 22.5338 12.3082 22.4191C12.4368 22.2731 13.0799 20.6258 13.0799 20.4538C13.0799 20.3547 12.9567 19.9794 12.8066 19.6249C12.6565 19.2652 12.544 18.9681 12.5547 18.9577C12.5654 18.9473 12.7048 18.9003 12.8709 18.8534C13.2514 18.7492 13.498 18.7909 13.7499 19.0098C14.1197 19.3278 14.1411 19.4164 14.1411 21.0376V22.4868H14.4895H14.8432L14.8272 20.9073L14.8111 19.333L14.661 19.0307C14.4788 18.6814 14.2376 18.4312 13.8946 18.2592C13.7016 18.1601 13.6588 18.1132 13.6856 18.0298C13.707 17.9724 13.7338 17.7118 13.7499 17.4511C13.7767 17.0185 13.766 16.9455 13.6481 16.6901C13.4605 16.2939 13.2193 16.0489 12.8388 15.8716C12.4421 15.684 11.9759 15.6266 11.6168 15.7257ZM12.5654 16.518C13.1603 16.8569 13.2461 17.7066 12.7316 18.1236C12.1366 18.598 11.2738 18.3426 11.0326 17.6232C10.9039 17.2322 11.1505 16.7057 11.5578 16.492C11.8526 16.3408 12.276 16.3564 12.5654 16.518Z" fill="currentColor"/>
<path d="M20.8406 16.3616V16.7005H21.189H21.5374V16.3616V16.0228H21.189H20.8406V16.3616Z" fill="currentColor"/>
<path d="M20.8406 19.9324V22.4868H21.189H21.5374V19.9324V17.3781H21.189H20.8406V19.9324Z" fill="currentColor"/>
<path d="M3.97935 19.4425C2.92351 20.3756 2.03382 21.1628 2.00702 21.1888C1.97486 21.2149 2.05526 21.3348 2.20533 21.486L2.44651 21.7414L3.51307 20.8031C4.09726 20.287 4.91728 19.5624 5.34069 19.1871L6.10711 18.5094L7.04504 19.1193C7.56492 19.4581 7.99368 19.724 7.99904 19.7136C8.17055 19.4633 8.36349 19.1401 8.34742 19.1297C8.3367 19.1193 7.84897 18.8065 7.27014 18.426C6.52516 17.9464 6.16606 17.7431 6.05887 17.7431C5.93024 17.7431 5.56579 18.0402 3.97935 19.4425Z" fill="currentColor"/>
<path d="M16.6065 19.4373V21.1315H16.9549H17.3033V19.4373V17.7431H16.9549H16.6065V19.4373Z" fill="currentColor"/>
<path d="M18.7504 20.4537V22.4868H19.072H19.3935V20.4537V18.4207H19.072H18.7504V20.4537Z" fill="currentColor"/>
<path d="M6.79849 21.3138V22.4868H7.12007H7.44164V21.3138V20.1409H7.12007H6.79849V21.3138Z" fill="currentColor"/>
<path d="M4.65466 21.4702V22.4868H5.00303H5.35141V21.4702V20.4537H5.00303H4.65466V21.4702Z" fill="currentColor"/>
<path d="M16.6065 22.174V22.4868H16.9549H17.3033V22.174V21.8612H16.9549H16.6065V22.174Z" fill="currentColor"/>
</svg>
