<svg viewBox="0 0 24 24" fill="none" xmlns="http://www.w3.org/2000/svg">
<g>
<path d="M14.689 0.167999H15.742L16.2073 0.216979L16.8441 0.314938L17.3829 0.437387L17.8482 0.559836L18.5339 0.804734L19.1951 1.09861L19.7339 1.39249L20.1502 1.66188L20.3951 1.83331L20.7624 2.10269L21.0318 2.34759L21.2767 2.54351L21.6441 2.88637L21.9624 3.22922L22.1584 3.47412L22.4278 3.79249L22.6971 4.18433L22.9175 4.52718L23.2359 5.09045L23.4808 5.60473L23.7257 6.24147L23.9706 7.07412L24.0931 7.68637L24.24 8.61698V9.93943L24.191 10.2578L24.1175 10.7476L23.9951 11.3598L23.8727 11.8251L23.7502 12.217L23.5543 12.7558L23.2849 13.3435L23.0155 13.8578L22.7461 14.2741L22.5257 14.5925L22.3053 14.8864H22.2563L22.2073 15.0088L22.0114 15.2537L21.1053 16.1598L20.8359 16.3558L20.5175 16.6251L20.2971 16.7721L20.0522 16.9435L19.4645 17.2864L18.8767 17.5802L18.191 17.8496L17.7257 17.9966L17.04 18.168L16.3543 18.2904L15.7175 18.3394L15.5706 18.3639H14.591L13.7094 18.266L13.0971 18.1435L12.4359 17.9721L11.8237 17.7517L11.3584 17.5558L10.7461 17.2619L10.5502 17.1149L10.5012 17.0904L10.4522 17.2129L10.2563 17.4823L10.0849 17.6537L9.93796 17.8251L9.74204 17.9966L5.18694 22.5517L5.01551 22.7476L4.45224 23.3109L4.18285 23.5313L3.84 23.7762L3.49714 23.9721L3.15428 24.0945L2.86041 24.168H2.32163L2.24816 24.119L1.95428 24.07L1.56245 23.9231L1.24408 23.7517L0.974692 23.5313L0.778773 23.3109L0.558365 22.9925L0.386937 22.6251L0.288977 22.3313L0.239998 22.1109V21.4496L0.337957 21.0823L0.533875 20.6904L0.778773 20.3231L1.12163 19.9558L1.29306 19.7598L3.00734 18.0456L3.20326 17.8741L3.3502 17.7517L3.47265 17.6047L3.66857 17.4333L4.10939 16.9925L4.25632 16.8211L4.40326 16.6986L4.5502 16.5272L4.64816 16.4292H4.69714L4.74612 16.3313H4.7951L4.84408 16.2333L5.06449 16.0129L5.23592 15.817L6.90122 14.1517L7.17061 13.9313L7.21959 13.8333L7.02367 13.4415L6.77877 12.9027L6.53388 12.266L6.33796 11.6292L6.19102 11.017L6.06857 10.2823L6.01959 9.57208V8.88637L6.06857 8.17616L6.19102 7.44147L6.36245 6.78024L6.58285 6.11902L6.80326 5.58024L6.99918 5.18841L7.24408 4.7231L7.58694 4.18433L7.80734 3.86596L8.00326 3.59657L8.27265 3.2782L8.44408 3.0578L8.61551 2.88637L8.73796 2.73943L8.93388 2.568L9.17877 2.34759L9.39918 2.17616L9.66857 1.95575L10.1339 1.63739L10.4522 1.44147L10.6971 1.29453L11.089 1.09861L11.6278 0.853714L12.0686 0.682285L12.6318 0.510856L13.1706 0.388407L14.1747 0.216979L14.689 0.167999ZM15.0808 1.27004L15.0318 1.29453L14.2237 1.34351L13.8563 1.39249L13.2686 1.51494L12.9747 1.58841L12.191 1.8578L11.7502 2.05371L11.1869 2.34759L10.942 2.49453L10.6482 2.69045L10.3053 2.93535L9.98694 3.20473L9.74204 3.40065L9.20326 3.93943L8.95837 4.2578L8.73796 4.52718L8.56653 4.77208L8.29714 5.18841L8.00326 5.72718L7.73388 6.31494L7.53796 6.8782L7.36653 7.46596L7.24408 8.10269L7.17061 8.86188L7.14612 9.03331V9.62106L7.17061 9.69453L7.24408 10.4782L7.36653 11.0904L7.58694 11.8496L7.83183 12.4864L8.02775 12.8782L8.29714 13.368L8.46857 13.6374L8.66449 13.9068L8.90939 14.2251L9.12979 14.4945L9.93796 15.3027H9.98694V15.3517L10.3788 15.6456L10.6482 15.8415L11.0645 16.1109L11.5053 16.3558L11.9706 16.5762L12.4604 16.7721L12.9012 16.919L13.489 17.066L13.8563 17.1394L14.4441 17.2129L14.7869 17.2374H15.4727L16.2073 17.1639L16.8931 17.0415L17.4318 16.8945L17.9951 16.6986L18.4604 16.5027L18.9502 16.2578L19.1951 16.1109L19.4645 15.9394L19.7584 15.7435L20.1502 15.4496L20.4686 15.1558L21.1788 14.4456L21.3502 14.2496L21.5461 13.9802L21.791 13.6374L22.0604 13.1966L22.3543 12.6333L22.5747 12.119L22.8196 11.3843L22.942 10.8456L23.0155 10.4537L23.089 9.81698V8.71494L23.0155 8.05371L22.8931 7.44147L22.7216 6.80473L22.4767 6.168L22.1829 5.55575L21.791 4.89453L21.4727 4.45371L21.2522 4.18433L21.0808 3.98841L20.8604 3.74351L20.4441 3.32718L20.1747 3.10677L19.8318 2.83739L19.538 2.64147L19.1216 2.37208L18.7298 2.15167L18.0931 1.8578L17.2114 1.56392L16.6727 1.44147L16.0359 1.34351L15.2767 1.29453L15.2278 1.27004H15.0808ZM7.78285 14.9598L6.65632 16.0864L6.63183 16.1598L6.75428 16.2823L6.87673 16.4292H6.92571L6.97469 16.5272L8.05224 17.6047L8.24816 17.7762L9.3502 16.6741L9.44816 16.6007L9.39918 16.5027L9.27673 16.3558L9.1053 16.2088L8.98285 16.0619L8.83592 15.9394L8.68898 15.768L8.54204 15.6456L8.3951 15.4741L8.22367 15.3272L8.10122 15.2047L7.88081 14.9598H7.78285ZM5.70122 16.9925L5.5053 17.1639L1.78285 20.8864L1.53796 21.2292L1.41551 21.5231L1.36653 21.6945V21.8904L1.48898 22.3068L1.63592 22.5517L1.75837 22.6986L2.10122 22.919L2.41959 23.017H2.71347L2.90939 22.968L3.15428 22.87L3.37469 22.7231L3.47265 22.6496V22.6007L3.54612 22.5762L3.66857 22.4292L3.84 22.2823L3.96245 22.1353L4.10939 22.0129L4.25632 21.8415L4.40326 21.719L4.5502 21.5476L4.72163 21.4007L4.84408 21.2537L5.01551 21.1068L5.13796 20.9598L5.30939 20.8129L5.43183 20.666L5.60326 20.519L5.72571 20.3721L5.89714 20.2251L6.01959 20.0782L6.11755 20.0047V19.9558L6.21551 19.9068V19.8578L6.31347 19.8088V19.7598L6.41143 19.7109L6.7053 19.417V19.368L6.77877 19.3435L6.90122 19.1966L7.04816 19.0741L7.1951 18.9027L7.34204 18.7802L7.44 18.6823V18.6333L7.24408 18.4619L6.85224 18.07L6.72979 17.9231L6.58285 17.8007L6.43592 17.6292L6.26449 17.4823L6.11755 17.3109H6.06857L6.01959 17.2129L5.89714 17.1149L5.77469 16.9925H5.70122Z" fill="currentColor"/>
<path d="M14.4 2.952H15.168L15.696 3L16.296 3.12L16.944 3.312L17.448 3.528L17.832 3.72L18.216 3.96L18.504 4.152L18.624 4.248V4.296L18.72 4.344L18.936 4.512L19.224 4.776L19.488 5.064L19.752 5.4L19.968 5.712L20.16 6.024L20.4 6.456L20.592 6.912L20.736 7.344L20.856 7.872L20.928 8.232L20.952 8.616L20.976 8.76V9.336L20.952 9.504L20.928 9.864L20.832 10.416L20.688 10.944L20.496 11.472L20.208 12.072L20.016 12.384L19.848 12.648L19.752 12.768H19.704L19.656 12.888L19.464 13.128L18.768 13.824L18.528 13.992L18.336 14.136L17.832 14.448L17.208 14.76L16.416 15.024L15.84 15.144L15.264 15.216H14.4L13.824 15.144L13.272 15.024L12.72 14.856L12.12 14.592L11.712 14.376L11.208 14.04L10.848 13.752L10.464 13.416L10.296 13.224L10.104 13.008L9.864 12.696L9.648 12.384L9.456 12.072L9.12 11.376L8.904 10.728L8.808 10.32L8.736 9.912L8.712 9.6V8.616L8.76 8.136L8.856 7.656L9.072 6.96L9.288 6.456L9.552 5.952L9.72 5.688L9.888 5.448L10.08 5.208L10.296 4.944L10.464 4.752L10.656 4.56L10.992 4.296L11.232 4.104L11.616 3.84L11.952 3.648L12.336 3.456L12.888 3.24L13.512 3.072L14.088 2.976L14.4 2.952ZM15.12 4.056L14.4 4.08L13.968 4.128L13.464 4.248L12.912 4.44L12.504 4.632L12.024 4.92L11.592 5.256L11.4 5.424L11.04 5.784L10.8 6.12L10.656 6.312L10.44 6.672L10.152 7.272L10.008 7.704L9.888 8.184L9.816 8.832L9.792 8.952V9.288L9.912 10.128L10.056 10.656L10.224 11.088L10.416 11.472L10.632 11.832L10.872 12.168L11.136 12.456L11.64 12.96L12.072 13.272L12.528 13.536L12.984 13.752L13.464 13.92L13.872 14.016L14.352 14.088L14.664 14.112H15.024L15.528 14.064L16.008 13.968L16.416 13.848L16.872 13.68L17.376 13.416L17.64 13.248L17.928 13.032L18.216 12.768L18.744 12.24L19.056 11.808L19.272 11.424L19.464 11.04L19.608 10.632L19.704 10.296L19.776 10.008L19.848 9.432V8.664L19.752 8.016L19.656 7.656L19.536 7.296L19.32 6.816L19.056 6.36L18.816 6.024L18.528 5.688L18.12 5.28L17.832 5.064L17.568 4.872L17.112 4.608L16.632 4.392L16.2 4.248L15.672 4.128L15.12 4.056Z" fill="currentColor"/>
</g>
</svg>
